%TF.GenerationSoftware,KiCad,Pcbnew,9.0.7*%
%TF.CreationDate,2026-07-14T15:21:33-04:00*%
%TF.ProjectId,STM32C011F6_devboard,53544d33-3243-4303-9131-46365f646576,rev?*%
%TF.SameCoordinates,Original*%
%TF.FileFunction,Legend,Top*%
%TF.FilePolarity,Positive*%
%FSLAX46Y46*%
G04 Gerber Fmt 4.6, Leading zero omitted, Abs format (unit mm)*
G04 Created by KiCad (PCBNEW 9.0.7) date 2026-07-14 15:21:33*
%MOMM*%
%LPD*%
G01*
G04 APERTURE LIST*
%ADD10C,0.101600*%
%ADD11C,0.103188*%
%ADD12C,0.095250*%
%ADD13C,0.120000*%
G04 APERTURE END LIST*
D10*
X218440000Y-85090000D02*
X220980000Y-85090000D01*
X218440000Y-82550000D02*
X220980000Y-82550000D01*
X203200000Y-77470000D02*
X205740000Y-77470000D01*
X218440000Y-77470000D02*
X220980000Y-77470000D01*
X218440000Y-100330000D02*
X220980000Y-100330000D01*
X220980000Y-95250000D02*
X218440000Y-95250000D01*
X203200000Y-100330000D02*
X205740000Y-100330000D01*
X203200000Y-92710000D02*
X205740000Y-92710000D01*
X218440000Y-97790000D02*
X220980000Y-97790000D01*
X205740000Y-95250000D02*
X203200000Y-95250000D01*
X203200000Y-82550000D02*
X205740000Y-82550000D01*
X220980000Y-80010000D02*
X218440000Y-80010000D01*
X205740000Y-87630000D02*
X203200000Y-87630000D01*
X218440000Y-92710000D02*
X220980000Y-92710000D01*
X203200000Y-97790000D02*
X205740000Y-97790000D01*
X203200000Y-90170000D02*
X205740000Y-90170000D01*
X218440000Y-90170000D02*
X220980000Y-90170000D01*
X205740000Y-80010000D02*
X203200000Y-80010000D01*
X220980000Y-87630000D02*
X218440000Y-87630000D01*
X203200000Y-85090000D02*
X205740000Y-85090000D01*
D11*
X219748752Y-87342736D02*
X219748752Y-86949641D01*
X219984609Y-87421355D02*
X219159109Y-87146189D01*
X219159109Y-87146189D02*
X219984609Y-86871022D01*
X219984609Y-86163451D02*
X219984609Y-86635165D01*
X219984609Y-86399308D02*
X219159109Y-86399308D01*
X219159109Y-86399308D02*
X219277038Y-86477927D01*
X219277038Y-86477927D02*
X219355657Y-86556546D01*
X219355657Y-86556546D02*
X219394966Y-86635165D01*
X219159109Y-85652428D02*
X219159109Y-85573809D01*
X219159109Y-85573809D02*
X219198419Y-85495190D01*
X219198419Y-85495190D02*
X219237728Y-85455880D01*
X219237728Y-85455880D02*
X219316347Y-85416571D01*
X219316347Y-85416571D02*
X219473585Y-85377261D01*
X219473585Y-85377261D02*
X219670133Y-85377261D01*
X219670133Y-85377261D02*
X219827371Y-85416571D01*
X219827371Y-85416571D02*
X219905990Y-85455880D01*
X219905990Y-85455880D02*
X219945300Y-85495190D01*
X219945300Y-85495190D02*
X219984609Y-85573809D01*
X219984609Y-85573809D02*
X219984609Y-85652428D01*
X219984609Y-85652428D02*
X219945300Y-85731047D01*
X219945300Y-85731047D02*
X219905990Y-85770356D01*
X219905990Y-85770356D02*
X219827371Y-85809666D01*
X219827371Y-85809666D02*
X219670133Y-85848975D01*
X219670133Y-85848975D02*
X219473585Y-85848975D01*
X219473585Y-85848975D02*
X219316347Y-85809666D01*
X219316347Y-85809666D02*
X219237728Y-85770356D01*
X219237728Y-85770356D02*
X219198419Y-85731047D01*
X219198419Y-85731047D02*
X219159109Y-85652428D01*
X219748752Y-102189641D02*
X219748752Y-101796546D01*
X219984609Y-102268260D02*
X219159109Y-101993094D01*
X219159109Y-101993094D02*
X219984609Y-101717927D01*
X219434276Y-101088975D02*
X219984609Y-101088975D01*
X219119800Y-101285523D02*
X219709442Y-101482070D01*
X219709442Y-101482070D02*
X219709442Y-100971047D01*
X204431247Y-101010358D02*
X204431247Y-101403453D01*
X204195390Y-100931739D02*
X205020890Y-101206905D01*
X205020890Y-101206905D02*
X204195390Y-101482072D01*
X205020890Y-101678619D02*
X205020890Y-102189643D01*
X205020890Y-102189643D02*
X204706414Y-101914476D01*
X204706414Y-101914476D02*
X204706414Y-102032405D01*
X204706414Y-102032405D02*
X204667104Y-102111024D01*
X204667104Y-102111024D02*
X204627795Y-102150333D01*
X204627795Y-102150333D02*
X204549176Y-102189643D01*
X204549176Y-102189643D02*
X204352628Y-102189643D01*
X204352628Y-102189643D02*
X204274009Y-102150333D01*
X204274009Y-102150333D02*
X204234700Y-102111024D01*
X204234700Y-102111024D02*
X204195390Y-102032405D01*
X204195390Y-102032405D02*
X204195390Y-101796548D01*
X204195390Y-101796548D02*
X204234700Y-101717929D01*
X204234700Y-101717929D02*
X204274009Y-101678619D01*
X204981580Y-88271047D02*
X205020890Y-88192428D01*
X205020890Y-88192428D02*
X205020890Y-88074499D01*
X205020890Y-88074499D02*
X204981580Y-87956571D01*
X204981580Y-87956571D02*
X204902961Y-87877952D01*
X204902961Y-87877952D02*
X204824342Y-87838642D01*
X204824342Y-87838642D02*
X204667104Y-87799333D01*
X204667104Y-87799333D02*
X204549176Y-87799333D01*
X204549176Y-87799333D02*
X204391938Y-87838642D01*
X204391938Y-87838642D02*
X204313319Y-87877952D01*
X204313319Y-87877952D02*
X204234700Y-87956571D01*
X204234700Y-87956571D02*
X204195390Y-88074499D01*
X204195390Y-88074499D02*
X204195390Y-88153118D01*
X204195390Y-88153118D02*
X204234700Y-88271047D01*
X204234700Y-88271047D02*
X204274009Y-88310356D01*
X204274009Y-88310356D02*
X204549176Y-88310356D01*
X204549176Y-88310356D02*
X204549176Y-88153118D01*
X204195390Y-88664142D02*
X205020890Y-88664142D01*
X205020890Y-88664142D02*
X204195390Y-89135856D01*
X204195390Y-89135856D02*
X205020890Y-89135856D01*
X204195390Y-89528952D02*
X205020890Y-89528952D01*
X205020890Y-89528952D02*
X205020890Y-89725500D01*
X205020890Y-89725500D02*
X204981580Y-89843428D01*
X204981580Y-89843428D02*
X204902961Y-89922047D01*
X204902961Y-89922047D02*
X204824342Y-89961357D01*
X204824342Y-89961357D02*
X204667104Y-90000666D01*
X204667104Y-90000666D02*
X204549176Y-90000666D01*
X204549176Y-90000666D02*
X204391938Y-89961357D01*
X204391938Y-89961357D02*
X204313319Y-89922047D01*
X204313319Y-89922047D02*
X204234700Y-89843428D01*
X204234700Y-89843428D02*
X204195390Y-89725500D01*
X204195390Y-89725500D02*
X204195390Y-89528952D01*
X204981580Y-75571047D02*
X205020890Y-75492428D01*
X205020890Y-75492428D02*
X205020890Y-75374499D01*
X205020890Y-75374499D02*
X204981580Y-75256571D01*
X204981580Y-75256571D02*
X204902961Y-75177952D01*
X204902961Y-75177952D02*
X204824342Y-75138642D01*
X204824342Y-75138642D02*
X204667104Y-75099333D01*
X204667104Y-75099333D02*
X204549176Y-75099333D01*
X204549176Y-75099333D02*
X204391938Y-75138642D01*
X204391938Y-75138642D02*
X204313319Y-75177952D01*
X204313319Y-75177952D02*
X204234700Y-75256571D01*
X204234700Y-75256571D02*
X204195390Y-75374499D01*
X204195390Y-75374499D02*
X204195390Y-75453118D01*
X204195390Y-75453118D02*
X204234700Y-75571047D01*
X204234700Y-75571047D02*
X204274009Y-75610356D01*
X204274009Y-75610356D02*
X204549176Y-75610356D01*
X204549176Y-75610356D02*
X204549176Y-75453118D01*
X204195390Y-75964142D02*
X205020890Y-75964142D01*
X205020890Y-75964142D02*
X204195390Y-76435856D01*
X204195390Y-76435856D02*
X205020890Y-76435856D01*
X204195390Y-76828952D02*
X205020890Y-76828952D01*
X205020890Y-76828952D02*
X205020890Y-77025500D01*
X205020890Y-77025500D02*
X204981580Y-77143428D01*
X204981580Y-77143428D02*
X204902961Y-77222047D01*
X204902961Y-77222047D02*
X204824342Y-77261357D01*
X204824342Y-77261357D02*
X204667104Y-77300666D01*
X204667104Y-77300666D02*
X204549176Y-77300666D01*
X204549176Y-77300666D02*
X204391938Y-77261357D01*
X204391938Y-77261357D02*
X204313319Y-77222047D01*
X204313319Y-77222047D02*
X204234700Y-77143428D01*
X204234700Y-77143428D02*
X204195390Y-77025500D01*
X204195390Y-77025500D02*
X204195390Y-76828952D01*
X219748752Y-99649641D02*
X219748752Y-99256546D01*
X219984609Y-99728260D02*
X219159109Y-99453094D01*
X219159109Y-99453094D02*
X219984609Y-99177927D01*
X219159109Y-98509666D02*
X219159109Y-98902761D01*
X219159109Y-98902761D02*
X219552204Y-98942070D01*
X219552204Y-98942070D02*
X219512895Y-98902761D01*
X219512895Y-98902761D02*
X219473585Y-98824142D01*
X219473585Y-98824142D02*
X219473585Y-98627594D01*
X219473585Y-98627594D02*
X219512895Y-98548975D01*
X219512895Y-98548975D02*
X219552204Y-98509666D01*
X219552204Y-98509666D02*
X219630823Y-98470356D01*
X219630823Y-98470356D02*
X219827371Y-98470356D01*
X219827371Y-98470356D02*
X219905990Y-98509666D01*
X219905990Y-98509666D02*
X219945300Y-98548975D01*
X219945300Y-98548975D02*
X219984609Y-98627594D01*
X219984609Y-98627594D02*
X219984609Y-98824142D01*
X219984609Y-98824142D02*
X219945300Y-98902761D01*
X219945300Y-98902761D02*
X219905990Y-98942070D01*
X218732752Y-87342736D02*
X218732752Y-86949641D01*
X218968609Y-87421355D02*
X218143109Y-87146189D01*
X218143109Y-87146189D02*
X218968609Y-86871022D01*
X218968609Y-86163451D02*
X218968609Y-86635165D01*
X218968609Y-86399308D02*
X218143109Y-86399308D01*
X218143109Y-86399308D02*
X218261038Y-86477927D01*
X218261038Y-86477927D02*
X218339657Y-86556546D01*
X218339657Y-86556546D02*
X218378966Y-86635165D01*
X218221728Y-85848975D02*
X218182419Y-85809666D01*
X218182419Y-85809666D02*
X218143109Y-85731047D01*
X218143109Y-85731047D02*
X218143109Y-85534499D01*
X218143109Y-85534499D02*
X218182419Y-85455880D01*
X218182419Y-85455880D02*
X218221728Y-85416571D01*
X218221728Y-85416571D02*
X218300347Y-85377261D01*
X218300347Y-85377261D02*
X218378966Y-85377261D01*
X218378966Y-85377261D02*
X218496895Y-85416571D01*
X218496895Y-85416571D02*
X218968609Y-85888285D01*
X218968609Y-85888285D02*
X218968609Y-85377261D01*
X205020890Y-85377262D02*
X205020890Y-85888286D01*
X205020890Y-85888286D02*
X204706414Y-85613119D01*
X204706414Y-85613119D02*
X204706414Y-85731048D01*
X204706414Y-85731048D02*
X204667104Y-85809667D01*
X204667104Y-85809667D02*
X204627795Y-85848976D01*
X204627795Y-85848976D02*
X204549176Y-85888286D01*
X204549176Y-85888286D02*
X204352628Y-85888286D01*
X204352628Y-85888286D02*
X204274009Y-85848976D01*
X204274009Y-85848976D02*
X204234700Y-85809667D01*
X204234700Y-85809667D02*
X204195390Y-85731048D01*
X204195390Y-85731048D02*
X204195390Y-85495191D01*
X204195390Y-85495191D02*
X204234700Y-85416572D01*
X204234700Y-85416572D02*
X204274009Y-85377262D01*
X204745723Y-86163452D02*
X204195390Y-86360000D01*
X204195390Y-86360000D02*
X204745723Y-86556547D01*
X205020890Y-86792404D02*
X205020890Y-87303428D01*
X205020890Y-87303428D02*
X204706414Y-87028261D01*
X204706414Y-87028261D02*
X204706414Y-87146190D01*
X204706414Y-87146190D02*
X204667104Y-87224809D01*
X204667104Y-87224809D02*
X204627795Y-87264118D01*
X204627795Y-87264118D02*
X204549176Y-87303428D01*
X204549176Y-87303428D02*
X204352628Y-87303428D01*
X204352628Y-87303428D02*
X204274009Y-87264118D01*
X204274009Y-87264118D02*
X204234700Y-87224809D01*
X204234700Y-87224809D02*
X204195390Y-87146190D01*
X204195390Y-87146190D02*
X204195390Y-86910333D01*
X204195390Y-86910333D02*
X204234700Y-86831714D01*
X204234700Y-86831714D02*
X204274009Y-86792404D01*
X219159109Y-77300665D02*
X219984609Y-77025499D01*
X219984609Y-77025499D02*
X219159109Y-76750332D01*
X219905990Y-76003452D02*
X219945300Y-76042761D01*
X219945300Y-76042761D02*
X219984609Y-76160690D01*
X219984609Y-76160690D02*
X219984609Y-76239309D01*
X219984609Y-76239309D02*
X219945300Y-76357237D01*
X219945300Y-76357237D02*
X219866680Y-76435856D01*
X219866680Y-76435856D02*
X219788061Y-76475166D01*
X219788061Y-76475166D02*
X219630823Y-76514475D01*
X219630823Y-76514475D02*
X219512895Y-76514475D01*
X219512895Y-76514475D02*
X219355657Y-76475166D01*
X219355657Y-76475166D02*
X219277038Y-76435856D01*
X219277038Y-76435856D02*
X219198419Y-76357237D01*
X219198419Y-76357237D02*
X219159109Y-76239309D01*
X219159109Y-76239309D02*
X219159109Y-76160690D01*
X219159109Y-76160690D02*
X219198419Y-76042761D01*
X219198419Y-76042761D02*
X219237728Y-76003452D01*
X219905990Y-75177952D02*
X219945300Y-75217261D01*
X219945300Y-75217261D02*
X219984609Y-75335190D01*
X219984609Y-75335190D02*
X219984609Y-75413809D01*
X219984609Y-75413809D02*
X219945300Y-75531737D01*
X219945300Y-75531737D02*
X219866680Y-75610356D01*
X219866680Y-75610356D02*
X219788061Y-75649666D01*
X219788061Y-75649666D02*
X219630823Y-75688975D01*
X219630823Y-75688975D02*
X219512895Y-75688975D01*
X219512895Y-75688975D02*
X219355657Y-75649666D01*
X219355657Y-75649666D02*
X219277038Y-75610356D01*
X219277038Y-75610356D02*
X219198419Y-75531737D01*
X219198419Y-75531737D02*
X219159109Y-75413809D01*
X219159109Y-75413809D02*
X219159109Y-75335190D01*
X219159109Y-75335190D02*
X219198419Y-75217261D01*
X219198419Y-75217261D02*
X219237728Y-75177952D01*
X219552204Y-79074130D02*
X219591514Y-78956202D01*
X219591514Y-78956202D02*
X219630823Y-78916892D01*
X219630823Y-78916892D02*
X219709442Y-78877583D01*
X219709442Y-78877583D02*
X219827371Y-78877583D01*
X219827371Y-78877583D02*
X219905990Y-78916892D01*
X219905990Y-78916892D02*
X219945300Y-78956202D01*
X219945300Y-78956202D02*
X219984609Y-79034821D01*
X219984609Y-79034821D02*
X219984609Y-79349297D01*
X219984609Y-79349297D02*
X219159109Y-79349297D01*
X219159109Y-79349297D02*
X219159109Y-79074130D01*
X219159109Y-79074130D02*
X219198419Y-78995511D01*
X219198419Y-78995511D02*
X219237728Y-78956202D01*
X219237728Y-78956202D02*
X219316347Y-78916892D01*
X219316347Y-78916892D02*
X219394966Y-78916892D01*
X219394966Y-78916892D02*
X219473585Y-78956202D01*
X219473585Y-78956202D02*
X219512895Y-78995511D01*
X219512895Y-78995511D02*
X219552204Y-79074130D01*
X219552204Y-79074130D02*
X219552204Y-79349297D01*
X219159109Y-78170011D02*
X219159109Y-78327249D01*
X219159109Y-78327249D02*
X219198419Y-78405868D01*
X219198419Y-78405868D02*
X219237728Y-78445178D01*
X219237728Y-78445178D02*
X219355657Y-78523797D01*
X219355657Y-78523797D02*
X219512895Y-78563106D01*
X219512895Y-78563106D02*
X219827371Y-78563106D01*
X219827371Y-78563106D02*
X219905990Y-78523797D01*
X219905990Y-78523797D02*
X219945300Y-78484487D01*
X219945300Y-78484487D02*
X219984609Y-78405868D01*
X219984609Y-78405868D02*
X219984609Y-78248630D01*
X219984609Y-78248630D02*
X219945300Y-78170011D01*
X219945300Y-78170011D02*
X219905990Y-78130702D01*
X219905990Y-78130702D02*
X219827371Y-78091392D01*
X219827371Y-78091392D02*
X219630823Y-78091392D01*
X219630823Y-78091392D02*
X219552204Y-78130702D01*
X219552204Y-78130702D02*
X219512895Y-78170011D01*
X219512895Y-78170011D02*
X219473585Y-78248630D01*
X219473585Y-78248630D02*
X219473585Y-78405868D01*
X219473585Y-78405868D02*
X219512895Y-78484487D01*
X219512895Y-78484487D02*
X219552204Y-78523797D01*
X219552204Y-78523797D02*
X219630823Y-78563106D01*
X219748752Y-97109641D02*
X219748752Y-96716546D01*
X219984609Y-97188260D02*
X219159109Y-96913094D01*
X219159109Y-96913094D02*
X219984609Y-96637927D01*
X219159109Y-96008975D02*
X219159109Y-96166213D01*
X219159109Y-96166213D02*
X219198419Y-96244832D01*
X219198419Y-96244832D02*
X219237728Y-96284142D01*
X219237728Y-96284142D02*
X219355657Y-96362761D01*
X219355657Y-96362761D02*
X219512895Y-96402070D01*
X219512895Y-96402070D02*
X219827371Y-96402070D01*
X219827371Y-96402070D02*
X219905990Y-96362761D01*
X219905990Y-96362761D02*
X219945300Y-96323451D01*
X219945300Y-96323451D02*
X219984609Y-96244832D01*
X219984609Y-96244832D02*
X219984609Y-96087594D01*
X219984609Y-96087594D02*
X219945300Y-96008975D01*
X219945300Y-96008975D02*
X219905990Y-95969666D01*
X219905990Y-95969666D02*
X219827371Y-95930356D01*
X219827371Y-95930356D02*
X219630823Y-95930356D01*
X219630823Y-95930356D02*
X219552204Y-95969666D01*
X219552204Y-95969666D02*
X219512895Y-96008975D01*
X219512895Y-96008975D02*
X219473585Y-96087594D01*
X219473585Y-96087594D02*
X219473585Y-96244832D01*
X219473585Y-96244832D02*
X219512895Y-96323451D01*
X219512895Y-96323451D02*
X219552204Y-96362761D01*
X219552204Y-96362761D02*
X219630823Y-96402070D01*
X204431247Y-95930358D02*
X204431247Y-96323453D01*
X204195390Y-95851739D02*
X205020890Y-96126905D01*
X205020890Y-96126905D02*
X204195390Y-96402072D01*
X204195390Y-97109643D02*
X204195390Y-96637929D01*
X204195390Y-96873786D02*
X205020890Y-96873786D01*
X205020890Y-96873786D02*
X204902961Y-96795167D01*
X204902961Y-96795167D02*
X204824342Y-96716548D01*
X204824342Y-96716548D02*
X204785033Y-96637929D01*
X204401009Y-83289321D02*
X204361700Y-83250012D01*
X204361700Y-83250012D02*
X204322390Y-83132083D01*
X204322390Y-83132083D02*
X204322390Y-83053464D01*
X204322390Y-83053464D02*
X204361700Y-82935536D01*
X204361700Y-82935536D02*
X204440319Y-82856917D01*
X204440319Y-82856917D02*
X204518938Y-82817607D01*
X204518938Y-82817607D02*
X204676176Y-82778298D01*
X204676176Y-82778298D02*
X204794104Y-82778298D01*
X204794104Y-82778298D02*
X204951342Y-82817607D01*
X204951342Y-82817607D02*
X205029961Y-82856917D01*
X205029961Y-82856917D02*
X205108580Y-82935536D01*
X205108580Y-82935536D02*
X205147890Y-83053464D01*
X205147890Y-83053464D02*
X205147890Y-83132083D01*
X205147890Y-83132083D02*
X205108580Y-83250012D01*
X205108580Y-83250012D02*
X205069271Y-83289321D01*
X204322390Y-84075512D02*
X204322390Y-83603798D01*
X204322390Y-83839655D02*
X205147890Y-83839655D01*
X205147890Y-83839655D02*
X205029961Y-83761036D01*
X205029961Y-83761036D02*
X204951342Y-83682417D01*
X204951342Y-83682417D02*
X204912033Y-83603798D01*
X205147890Y-84822392D02*
X205147890Y-84429297D01*
X205147890Y-84429297D02*
X204754795Y-84389988D01*
X204754795Y-84389988D02*
X204794104Y-84429297D01*
X204794104Y-84429297D02*
X204833414Y-84507916D01*
X204833414Y-84507916D02*
X204833414Y-84704464D01*
X204833414Y-84704464D02*
X204794104Y-84783083D01*
X204794104Y-84783083D02*
X204754795Y-84822392D01*
X204754795Y-84822392D02*
X204676176Y-84861702D01*
X204676176Y-84861702D02*
X204479628Y-84861702D01*
X204479628Y-84861702D02*
X204401009Y-84822392D01*
X204401009Y-84822392D02*
X204361700Y-84783083D01*
X204361700Y-84783083D02*
X204322390Y-84704464D01*
X204322390Y-84704464D02*
X204322390Y-84507916D01*
X204322390Y-84507916D02*
X204361700Y-84429297D01*
X204361700Y-84429297D02*
X204401009Y-84389988D01*
X218732752Y-89882736D02*
X218732752Y-89489641D01*
X218968609Y-89961355D02*
X218143109Y-89686189D01*
X218143109Y-89686189D02*
X218968609Y-89411022D01*
X218968609Y-88703451D02*
X218968609Y-89175165D01*
X218968609Y-88939308D02*
X218143109Y-88939308D01*
X218143109Y-88939308D02*
X218261038Y-89017927D01*
X218261038Y-89017927D02*
X218339657Y-89096546D01*
X218339657Y-89096546D02*
X218378966Y-89175165D01*
X218968609Y-87917261D02*
X218968609Y-88388975D01*
X218968609Y-88153118D02*
X218143109Y-88153118D01*
X218143109Y-88153118D02*
X218261038Y-88231737D01*
X218261038Y-88231737D02*
X218339657Y-88310356D01*
X218339657Y-88310356D02*
X218378966Y-88388975D01*
X204431247Y-93390358D02*
X204431247Y-93783453D01*
X204195390Y-93311739D02*
X205020890Y-93586905D01*
X205020890Y-93586905D02*
X204195390Y-93862072D01*
X205020890Y-94294476D02*
X205020890Y-94373095D01*
X205020890Y-94373095D02*
X204981580Y-94451714D01*
X204981580Y-94451714D02*
X204942271Y-94491024D01*
X204942271Y-94491024D02*
X204863652Y-94530333D01*
X204863652Y-94530333D02*
X204706414Y-94569643D01*
X204706414Y-94569643D02*
X204509866Y-94569643D01*
X204509866Y-94569643D02*
X204352628Y-94530333D01*
X204352628Y-94530333D02*
X204274009Y-94491024D01*
X204274009Y-94491024D02*
X204234700Y-94451714D01*
X204234700Y-94451714D02*
X204195390Y-94373095D01*
X204195390Y-94373095D02*
X204195390Y-94294476D01*
X204195390Y-94294476D02*
X204234700Y-94215857D01*
X204234700Y-94215857D02*
X204274009Y-94176548D01*
X204274009Y-94176548D02*
X204352628Y-94137238D01*
X204352628Y-94137238D02*
X204509866Y-94097929D01*
X204509866Y-94097929D02*
X204706414Y-94097929D01*
X204706414Y-94097929D02*
X204863652Y-94137238D01*
X204863652Y-94137238D02*
X204942271Y-94176548D01*
X204942271Y-94176548D02*
X204981580Y-94215857D01*
X204981580Y-94215857D02*
X205020890Y-94294476D01*
X219748752Y-94569641D02*
X219748752Y-94176546D01*
X219984609Y-94648260D02*
X219159109Y-94373094D01*
X219159109Y-94373094D02*
X219984609Y-94097927D01*
X219159109Y-93901380D02*
X219159109Y-93351047D01*
X219159109Y-93351047D02*
X219984609Y-93704832D01*
X204401009Y-80749321D02*
X204361700Y-80710012D01*
X204361700Y-80710012D02*
X204322390Y-80592083D01*
X204322390Y-80592083D02*
X204322390Y-80513464D01*
X204322390Y-80513464D02*
X204361700Y-80395536D01*
X204361700Y-80395536D02*
X204440319Y-80316917D01*
X204440319Y-80316917D02*
X204518938Y-80277607D01*
X204518938Y-80277607D02*
X204676176Y-80238298D01*
X204676176Y-80238298D02*
X204794104Y-80238298D01*
X204794104Y-80238298D02*
X204951342Y-80277607D01*
X204951342Y-80277607D02*
X205029961Y-80316917D01*
X205029961Y-80316917D02*
X205108580Y-80395536D01*
X205108580Y-80395536D02*
X205147890Y-80513464D01*
X205147890Y-80513464D02*
X205147890Y-80592083D01*
X205147890Y-80592083D02*
X205108580Y-80710012D01*
X205108580Y-80710012D02*
X205069271Y-80749321D01*
X204322390Y-81535512D02*
X204322390Y-81063798D01*
X204322390Y-81299655D02*
X205147890Y-81299655D01*
X205147890Y-81299655D02*
X205029961Y-81221036D01*
X205029961Y-81221036D02*
X204951342Y-81142417D01*
X204951342Y-81142417D02*
X204912033Y-81063798D01*
X204872723Y-82243083D02*
X204322390Y-82243083D01*
X205187200Y-82046535D02*
X204597557Y-81849988D01*
X204597557Y-81849988D02*
X204597557Y-82361011D01*
X204431247Y-98470358D02*
X204431247Y-98863453D01*
X204195390Y-98391739D02*
X205020890Y-98666905D01*
X205020890Y-98666905D02*
X204195390Y-98942072D01*
X204942271Y-99177929D02*
X204981580Y-99217238D01*
X204981580Y-99217238D02*
X205020890Y-99295857D01*
X205020890Y-99295857D02*
X205020890Y-99492405D01*
X205020890Y-99492405D02*
X204981580Y-99571024D01*
X204981580Y-99571024D02*
X204942271Y-99610333D01*
X204942271Y-99610333D02*
X204863652Y-99649643D01*
X204863652Y-99649643D02*
X204785033Y-99649643D01*
X204785033Y-99649643D02*
X204667104Y-99610333D01*
X204667104Y-99610333D02*
X204195390Y-99138619D01*
X204195390Y-99138619D02*
X204195390Y-99649643D01*
X219748752Y-84802736D02*
X219748752Y-84409641D01*
X219984609Y-84881355D02*
X219159109Y-84606189D01*
X219159109Y-84606189D02*
X219984609Y-84331022D01*
X219984609Y-83623451D02*
X219984609Y-84095165D01*
X219984609Y-83859308D02*
X219159109Y-83859308D01*
X219159109Y-83859308D02*
X219277038Y-83937927D01*
X219277038Y-83937927D02*
X219355657Y-84016546D01*
X219355657Y-84016546D02*
X219394966Y-84095165D01*
X219159109Y-83348285D02*
X219159109Y-82837261D01*
X219159109Y-82837261D02*
X219473585Y-83112428D01*
X219473585Y-83112428D02*
X219473585Y-82994499D01*
X219473585Y-82994499D02*
X219512895Y-82915880D01*
X219512895Y-82915880D02*
X219552204Y-82876571D01*
X219552204Y-82876571D02*
X219630823Y-82837261D01*
X219630823Y-82837261D02*
X219827371Y-82837261D01*
X219827371Y-82837261D02*
X219905990Y-82876571D01*
X219905990Y-82876571D02*
X219945300Y-82915880D01*
X219945300Y-82915880D02*
X219984609Y-82994499D01*
X219984609Y-82994499D02*
X219984609Y-83230356D01*
X219984609Y-83230356D02*
X219945300Y-83308975D01*
X219945300Y-83308975D02*
X219905990Y-83348285D01*
X219748752Y-92029641D02*
X219748752Y-91636546D01*
X219984609Y-92108260D02*
X219159109Y-91833094D01*
X219159109Y-91833094D02*
X219984609Y-91557927D01*
X219512895Y-91164832D02*
X219473585Y-91243451D01*
X219473585Y-91243451D02*
X219434276Y-91282761D01*
X219434276Y-91282761D02*
X219355657Y-91322070D01*
X219355657Y-91322070D02*
X219316347Y-91322070D01*
X219316347Y-91322070D02*
X219237728Y-91282761D01*
X219237728Y-91282761D02*
X219198419Y-91243451D01*
X219198419Y-91243451D02*
X219159109Y-91164832D01*
X219159109Y-91164832D02*
X219159109Y-91007594D01*
X219159109Y-91007594D02*
X219198419Y-90928975D01*
X219198419Y-90928975D02*
X219237728Y-90889666D01*
X219237728Y-90889666D02*
X219316347Y-90850356D01*
X219316347Y-90850356D02*
X219355657Y-90850356D01*
X219355657Y-90850356D02*
X219434276Y-90889666D01*
X219434276Y-90889666D02*
X219473585Y-90928975D01*
X219473585Y-90928975D02*
X219512895Y-91007594D01*
X219512895Y-91007594D02*
X219512895Y-91164832D01*
X219512895Y-91164832D02*
X219552204Y-91243451D01*
X219552204Y-91243451D02*
X219591514Y-91282761D01*
X219591514Y-91282761D02*
X219670133Y-91322070D01*
X219670133Y-91322070D02*
X219827371Y-91322070D01*
X219827371Y-91322070D02*
X219905990Y-91282761D01*
X219905990Y-91282761D02*
X219945300Y-91243451D01*
X219945300Y-91243451D02*
X219984609Y-91164832D01*
X219984609Y-91164832D02*
X219984609Y-91007594D01*
X219984609Y-91007594D02*
X219945300Y-90928975D01*
X219945300Y-90928975D02*
X219905990Y-90889666D01*
X219905990Y-90889666D02*
X219827371Y-90850356D01*
X219827371Y-90850356D02*
X219670133Y-90850356D01*
X219670133Y-90850356D02*
X219591514Y-90889666D01*
X219591514Y-90889666D02*
X219552204Y-90928975D01*
X219552204Y-90928975D02*
X219512895Y-91007594D01*
X219748752Y-89489641D02*
X219748752Y-89096546D01*
X219984609Y-89568260D02*
X219159109Y-89293094D01*
X219159109Y-89293094D02*
X219984609Y-89017927D01*
X219984609Y-88703451D02*
X219984609Y-88546213D01*
X219984609Y-88546213D02*
X219945300Y-88467594D01*
X219945300Y-88467594D02*
X219905990Y-88428285D01*
X219905990Y-88428285D02*
X219788061Y-88349666D01*
X219788061Y-88349666D02*
X219630823Y-88310356D01*
X219630823Y-88310356D02*
X219316347Y-88310356D01*
X219316347Y-88310356D02*
X219237728Y-88349666D01*
X219237728Y-88349666D02*
X219198419Y-88388975D01*
X219198419Y-88388975D02*
X219159109Y-88467594D01*
X219159109Y-88467594D02*
X219159109Y-88624832D01*
X219159109Y-88624832D02*
X219198419Y-88703451D01*
X219198419Y-88703451D02*
X219237728Y-88742761D01*
X219237728Y-88742761D02*
X219316347Y-88782070D01*
X219316347Y-88782070D02*
X219512895Y-88782070D01*
X219512895Y-88782070D02*
X219591514Y-88742761D01*
X219591514Y-88742761D02*
X219630823Y-88703451D01*
X219630823Y-88703451D02*
X219670133Y-88624832D01*
X219670133Y-88624832D02*
X219670133Y-88467594D01*
X219670133Y-88467594D02*
X219630823Y-88388975D01*
X219630823Y-88388975D02*
X219591514Y-88349666D01*
X219591514Y-88349666D02*
X219512895Y-88310356D01*
X204627795Y-78405869D02*
X204588485Y-78523797D01*
X204588485Y-78523797D02*
X204549176Y-78563107D01*
X204549176Y-78563107D02*
X204470557Y-78602416D01*
X204470557Y-78602416D02*
X204352628Y-78602416D01*
X204352628Y-78602416D02*
X204274009Y-78563107D01*
X204274009Y-78563107D02*
X204234700Y-78523797D01*
X204234700Y-78523797D02*
X204195390Y-78445178D01*
X204195390Y-78445178D02*
X204195390Y-78130702D01*
X204195390Y-78130702D02*
X205020890Y-78130702D01*
X205020890Y-78130702D02*
X205020890Y-78405869D01*
X205020890Y-78405869D02*
X204981580Y-78484488D01*
X204981580Y-78484488D02*
X204942271Y-78523797D01*
X204942271Y-78523797D02*
X204863652Y-78563107D01*
X204863652Y-78563107D02*
X204785033Y-78563107D01*
X204785033Y-78563107D02*
X204706414Y-78523797D01*
X204706414Y-78523797D02*
X204667104Y-78484488D01*
X204667104Y-78484488D02*
X204627795Y-78405869D01*
X204627795Y-78405869D02*
X204627795Y-78130702D01*
X205020890Y-78877583D02*
X205020890Y-79427916D01*
X205020890Y-79427916D02*
X204195390Y-79074131D01*
X219748752Y-82262736D02*
X219748752Y-81869641D01*
X219984609Y-82341355D02*
X219159109Y-82066189D01*
X219159109Y-82066189D02*
X219984609Y-81791022D01*
X219984609Y-81083451D02*
X219984609Y-81555165D01*
X219984609Y-81319308D02*
X219159109Y-81319308D01*
X219159109Y-81319308D02*
X219277038Y-81397927D01*
X219277038Y-81397927D02*
X219355657Y-81476546D01*
X219355657Y-81476546D02*
X219394966Y-81555165D01*
X219434276Y-80375880D02*
X219984609Y-80375880D01*
X219119800Y-80572428D02*
X219709442Y-80768975D01*
X219709442Y-80768975D02*
X219709442Y-80257952D01*
X204195390Y-90987940D02*
X204588485Y-90712774D01*
X204195390Y-90516226D02*
X205020890Y-90516226D01*
X205020890Y-90516226D02*
X205020890Y-90830702D01*
X205020890Y-90830702D02*
X204981580Y-90909321D01*
X204981580Y-90909321D02*
X204942271Y-90948631D01*
X204942271Y-90948631D02*
X204863652Y-90987940D01*
X204863652Y-90987940D02*
X204745723Y-90987940D01*
X204745723Y-90987940D02*
X204667104Y-90948631D01*
X204667104Y-90948631D02*
X204627795Y-90909321D01*
X204627795Y-90909321D02*
X204588485Y-90830702D01*
X204588485Y-90830702D02*
X204588485Y-90516226D01*
X204234700Y-91302417D02*
X204195390Y-91420345D01*
X204195390Y-91420345D02*
X204195390Y-91616893D01*
X204195390Y-91616893D02*
X204234700Y-91695512D01*
X204234700Y-91695512D02*
X204274009Y-91734821D01*
X204274009Y-91734821D02*
X204352628Y-91774131D01*
X204352628Y-91774131D02*
X204431247Y-91774131D01*
X204431247Y-91774131D02*
X204509866Y-91734821D01*
X204509866Y-91734821D02*
X204549176Y-91695512D01*
X204549176Y-91695512D02*
X204588485Y-91616893D01*
X204588485Y-91616893D02*
X204627795Y-91459655D01*
X204627795Y-91459655D02*
X204667104Y-91381036D01*
X204667104Y-91381036D02*
X204706414Y-91341726D01*
X204706414Y-91341726D02*
X204785033Y-91302417D01*
X204785033Y-91302417D02*
X204863652Y-91302417D01*
X204863652Y-91302417D02*
X204942271Y-91341726D01*
X204942271Y-91341726D02*
X204981580Y-91381036D01*
X204981580Y-91381036D02*
X205020890Y-91459655D01*
X205020890Y-91459655D02*
X205020890Y-91656202D01*
X205020890Y-91656202D02*
X204981580Y-91774131D01*
X205020890Y-92009988D02*
X205020890Y-92481702D01*
X204195390Y-92245845D02*
X205020890Y-92245845D01*
D12*
X217295000Y-78833562D02*
X217041000Y-78470705D01*
X216859571Y-78833562D02*
X216859571Y-78071562D01*
X216859571Y-78071562D02*
X217149857Y-78071562D01*
X217149857Y-78071562D02*
X217222428Y-78107848D01*
X217222428Y-78107848D02*
X217258714Y-78144134D01*
X217258714Y-78144134D02*
X217295000Y-78216705D01*
X217295000Y-78216705D02*
X217295000Y-78325562D01*
X217295000Y-78325562D02*
X217258714Y-78398134D01*
X217258714Y-78398134D02*
X217222428Y-78434419D01*
X217222428Y-78434419D02*
X217149857Y-78470705D01*
X217149857Y-78470705D02*
X216859571Y-78470705D01*
X217948143Y-78325562D02*
X217948143Y-78833562D01*
X217766714Y-78035277D02*
X217585285Y-78579562D01*
X217585285Y-78579562D02*
X218057000Y-78579562D01*
X207391000Y-91206991D02*
X207354714Y-91243277D01*
X207354714Y-91243277D02*
X207245857Y-91279562D01*
X207245857Y-91279562D02*
X207173285Y-91279562D01*
X207173285Y-91279562D02*
X207064428Y-91243277D01*
X207064428Y-91243277D02*
X206991857Y-91170705D01*
X206991857Y-91170705D02*
X206955571Y-91098134D01*
X206955571Y-91098134D02*
X206919285Y-90952991D01*
X206919285Y-90952991D02*
X206919285Y-90844134D01*
X206919285Y-90844134D02*
X206955571Y-90698991D01*
X206955571Y-90698991D02*
X206991857Y-90626419D01*
X206991857Y-90626419D02*
X207064428Y-90553848D01*
X207064428Y-90553848D02*
X207173285Y-90517562D01*
X207173285Y-90517562D02*
X207245857Y-90517562D01*
X207245857Y-90517562D02*
X207354714Y-90553848D01*
X207354714Y-90553848D02*
X207391000Y-90590134D01*
X208044143Y-90771562D02*
X208044143Y-91279562D01*
X207862714Y-90481277D02*
X207681285Y-91025562D01*
X207681285Y-91025562D02*
X208153000Y-91025562D01*
X217297000Y-97756562D02*
X217043000Y-97393705D01*
X216861571Y-97756562D02*
X216861571Y-96994562D01*
X216861571Y-96994562D02*
X217151857Y-96994562D01*
X217151857Y-96994562D02*
X217224428Y-97030848D01*
X217224428Y-97030848D02*
X217260714Y-97067134D01*
X217260714Y-97067134D02*
X217297000Y-97139705D01*
X217297000Y-97139705D02*
X217297000Y-97248562D01*
X217297000Y-97248562D02*
X217260714Y-97321134D01*
X217260714Y-97321134D02*
X217224428Y-97357419D01*
X217224428Y-97357419D02*
X217151857Y-97393705D01*
X217151857Y-97393705D02*
X216861571Y-97393705D01*
X218022714Y-97756562D02*
X217587285Y-97756562D01*
X217805000Y-97756562D02*
X217805000Y-96994562D01*
X217805000Y-96994562D02*
X217732428Y-97103419D01*
X217732428Y-97103419D02*
X217659857Y-97175991D01*
X217659857Y-97175991D02*
X217587285Y-97212277D01*
X207391000Y-89247562D02*
X207137000Y-88884705D01*
X206955571Y-89247562D02*
X206955571Y-88485562D01*
X206955571Y-88485562D02*
X207245857Y-88485562D01*
X207245857Y-88485562D02*
X207318428Y-88521848D01*
X207318428Y-88521848D02*
X207354714Y-88558134D01*
X207354714Y-88558134D02*
X207391000Y-88630705D01*
X207391000Y-88630705D02*
X207391000Y-88739562D01*
X207391000Y-88739562D02*
X207354714Y-88812134D01*
X207354714Y-88812134D02*
X207318428Y-88848419D01*
X207318428Y-88848419D02*
X207245857Y-88884705D01*
X207245857Y-88884705D02*
X206955571Y-88884705D01*
X207681285Y-88558134D02*
X207717571Y-88521848D01*
X207717571Y-88521848D02*
X207790143Y-88485562D01*
X207790143Y-88485562D02*
X207971571Y-88485562D01*
X207971571Y-88485562D02*
X208044143Y-88521848D01*
X208044143Y-88521848D02*
X208080428Y-88558134D01*
X208080428Y-88558134D02*
X208116714Y-88630705D01*
X208116714Y-88630705D02*
X208116714Y-88703277D01*
X208116714Y-88703277D02*
X208080428Y-88812134D01*
X208080428Y-88812134D02*
X207645000Y-89247562D01*
X207645000Y-89247562D02*
X208116714Y-89247562D01*
X206629000Y-82189991D02*
X206592714Y-82226277D01*
X206592714Y-82226277D02*
X206483857Y-82262562D01*
X206483857Y-82262562D02*
X206411285Y-82262562D01*
X206411285Y-82262562D02*
X206302428Y-82226277D01*
X206302428Y-82226277D02*
X206229857Y-82153705D01*
X206229857Y-82153705D02*
X206193571Y-82081134D01*
X206193571Y-82081134D02*
X206157285Y-81935991D01*
X206157285Y-81935991D02*
X206157285Y-81827134D01*
X206157285Y-81827134D02*
X206193571Y-81681991D01*
X206193571Y-81681991D02*
X206229857Y-81609419D01*
X206229857Y-81609419D02*
X206302428Y-81536848D01*
X206302428Y-81536848D02*
X206411285Y-81500562D01*
X206411285Y-81500562D02*
X206483857Y-81500562D01*
X206483857Y-81500562D02*
X206592714Y-81536848D01*
X206592714Y-81536848D02*
X206629000Y-81573134D01*
X206883000Y-81500562D02*
X207354714Y-81500562D01*
X207354714Y-81500562D02*
X207100714Y-81790848D01*
X207100714Y-81790848D02*
X207209571Y-81790848D01*
X207209571Y-81790848D02*
X207282143Y-81827134D01*
X207282143Y-81827134D02*
X207318428Y-81863419D01*
X207318428Y-81863419D02*
X207354714Y-81935991D01*
X207354714Y-81935991D02*
X207354714Y-82117419D01*
X207354714Y-82117419D02*
X207318428Y-82189991D01*
X207318428Y-82189991D02*
X207282143Y-82226277D01*
X207282143Y-82226277D02*
X207209571Y-82262562D01*
X207209571Y-82262562D02*
X206991857Y-82262562D01*
X206991857Y-82262562D02*
X206919285Y-82226277D01*
X206919285Y-82226277D02*
X206883000Y-82189991D01*
X208461428Y-79468562D02*
X208461428Y-80085419D01*
X208461428Y-80085419D02*
X208497714Y-80157991D01*
X208497714Y-80157991D02*
X208534000Y-80194277D01*
X208534000Y-80194277D02*
X208606571Y-80230562D01*
X208606571Y-80230562D02*
X208751714Y-80230562D01*
X208751714Y-80230562D02*
X208824285Y-80194277D01*
X208824285Y-80194277D02*
X208860571Y-80157991D01*
X208860571Y-80157991D02*
X208896857Y-80085419D01*
X208896857Y-80085419D02*
X208896857Y-79468562D01*
X209223428Y-79541134D02*
X209259714Y-79504848D01*
X209259714Y-79504848D02*
X209332286Y-79468562D01*
X209332286Y-79468562D02*
X209513714Y-79468562D01*
X209513714Y-79468562D02*
X209586286Y-79504848D01*
X209586286Y-79504848D02*
X209622571Y-79541134D01*
X209622571Y-79541134D02*
X209658857Y-79613705D01*
X209658857Y-79613705D02*
X209658857Y-79686277D01*
X209658857Y-79686277D02*
X209622571Y-79795134D01*
X209622571Y-79795134D02*
X209187143Y-80230562D01*
X209187143Y-80230562D02*
X209658857Y-80230562D01*
X215900000Y-97683991D02*
X215863714Y-97720277D01*
X215863714Y-97720277D02*
X215754857Y-97756562D01*
X215754857Y-97756562D02*
X215682285Y-97756562D01*
X215682285Y-97756562D02*
X215573428Y-97720277D01*
X215573428Y-97720277D02*
X215500857Y-97647705D01*
X215500857Y-97647705D02*
X215464571Y-97575134D01*
X215464571Y-97575134D02*
X215428285Y-97429991D01*
X215428285Y-97429991D02*
X215428285Y-97321134D01*
X215428285Y-97321134D02*
X215464571Y-97175991D01*
X215464571Y-97175991D02*
X215500857Y-97103419D01*
X215500857Y-97103419D02*
X215573428Y-97030848D01*
X215573428Y-97030848D02*
X215682285Y-96994562D01*
X215682285Y-96994562D02*
X215754857Y-96994562D01*
X215754857Y-96994562D02*
X215863714Y-97030848D01*
X215863714Y-97030848D02*
X215900000Y-97067134D01*
X216625714Y-97756562D02*
X216190285Y-97756562D01*
X216408000Y-97756562D02*
X216408000Y-96994562D01*
X216408000Y-96994562D02*
X216335428Y-97103419D01*
X216335428Y-97103419D02*
X216262857Y-97175991D01*
X216262857Y-97175991D02*
X216190285Y-97212277D01*
X206810428Y-100423562D02*
X206810428Y-101040419D01*
X206810428Y-101040419D02*
X206846714Y-101112991D01*
X206846714Y-101112991D02*
X206883000Y-101149277D01*
X206883000Y-101149277D02*
X206955571Y-101185562D01*
X206955571Y-101185562D02*
X207100714Y-101185562D01*
X207100714Y-101185562D02*
X207173285Y-101149277D01*
X207173285Y-101149277D02*
X207209571Y-101112991D01*
X207209571Y-101112991D02*
X207245857Y-101040419D01*
X207245857Y-101040419D02*
X207245857Y-100423562D01*
X208007857Y-101185562D02*
X207572428Y-101185562D01*
X207790143Y-101185562D02*
X207790143Y-100423562D01*
X207790143Y-100423562D02*
X207717571Y-100532419D01*
X207717571Y-100532419D02*
X207645000Y-100604991D01*
X207645000Y-100604991D02*
X207572428Y-100641277D01*
X212230000Y-92176991D02*
X212193714Y-92213277D01*
X212193714Y-92213277D02*
X212084857Y-92249562D01*
X212084857Y-92249562D02*
X212012285Y-92249562D01*
X212012285Y-92249562D02*
X211903428Y-92213277D01*
X211903428Y-92213277D02*
X211830857Y-92140705D01*
X211830857Y-92140705D02*
X211794571Y-92068134D01*
X211794571Y-92068134D02*
X211758285Y-91922991D01*
X211758285Y-91922991D02*
X211758285Y-91814134D01*
X211758285Y-91814134D02*
X211794571Y-91668991D01*
X211794571Y-91668991D02*
X211830857Y-91596419D01*
X211830857Y-91596419D02*
X211903428Y-91523848D01*
X211903428Y-91523848D02*
X212012285Y-91487562D01*
X212012285Y-91487562D02*
X212084857Y-91487562D01*
X212084857Y-91487562D02*
X212193714Y-91523848D01*
X212193714Y-91523848D02*
X212230000Y-91560134D01*
X212520285Y-91560134D02*
X212556571Y-91523848D01*
X212556571Y-91523848D02*
X212629143Y-91487562D01*
X212629143Y-91487562D02*
X212810571Y-91487562D01*
X212810571Y-91487562D02*
X212883143Y-91523848D01*
X212883143Y-91523848D02*
X212919428Y-91560134D01*
X212919428Y-91560134D02*
X212955714Y-91632705D01*
X212955714Y-91632705D02*
X212955714Y-91705277D01*
X212955714Y-91705277D02*
X212919428Y-91814134D01*
X212919428Y-91814134D02*
X212484000Y-92249562D01*
X212484000Y-92249562D02*
X212955714Y-92249562D01*
X217295000Y-80103562D02*
X217041000Y-79740705D01*
X216859571Y-80103562D02*
X216859571Y-79341562D01*
X216859571Y-79341562D02*
X217149857Y-79341562D01*
X217149857Y-79341562D02*
X217222428Y-79377848D01*
X217222428Y-79377848D02*
X217258714Y-79414134D01*
X217258714Y-79414134D02*
X217295000Y-79486705D01*
X217295000Y-79486705D02*
X217295000Y-79595562D01*
X217295000Y-79595562D02*
X217258714Y-79668134D01*
X217258714Y-79668134D02*
X217222428Y-79704419D01*
X217222428Y-79704419D02*
X217149857Y-79740705D01*
X217149857Y-79740705D02*
X216859571Y-79740705D01*
X217549000Y-79341562D02*
X218020714Y-79341562D01*
X218020714Y-79341562D02*
X217766714Y-79631848D01*
X217766714Y-79631848D02*
X217875571Y-79631848D01*
X217875571Y-79631848D02*
X217948143Y-79668134D01*
X217948143Y-79668134D02*
X217984428Y-79704419D01*
X217984428Y-79704419D02*
X218020714Y-79776991D01*
X218020714Y-79776991D02*
X218020714Y-79958419D01*
X218020714Y-79958419D02*
X217984428Y-80030991D01*
X217984428Y-80030991D02*
X217948143Y-80067277D01*
X217948143Y-80067277D02*
X217875571Y-80103562D01*
X217875571Y-80103562D02*
X217657857Y-80103562D01*
X217657857Y-80103562D02*
X217585285Y-80067277D01*
X217585285Y-80067277D02*
X217549000Y-80030991D01*
X216226571Y-96867562D02*
X216226571Y-96105562D01*
X216226571Y-96105562D02*
X216408000Y-96105562D01*
X216408000Y-96105562D02*
X216516857Y-96141848D01*
X216516857Y-96141848D02*
X216589428Y-96214419D01*
X216589428Y-96214419D02*
X216625714Y-96286991D01*
X216625714Y-96286991D02*
X216662000Y-96432134D01*
X216662000Y-96432134D02*
X216662000Y-96540991D01*
X216662000Y-96540991D02*
X216625714Y-96686134D01*
X216625714Y-96686134D02*
X216589428Y-96758705D01*
X216589428Y-96758705D02*
X216516857Y-96831277D01*
X216516857Y-96831277D02*
X216408000Y-96867562D01*
X216408000Y-96867562D02*
X216226571Y-96867562D01*
X217387714Y-96867562D02*
X216952285Y-96867562D01*
X217170000Y-96867562D02*
X217170000Y-96105562D01*
X217170000Y-96105562D02*
X217097428Y-96214419D01*
X217097428Y-96214419D02*
X217024857Y-96286991D01*
X217024857Y-96286991D02*
X216952285Y-96323277D01*
D13*
%TO.C,R4*%
X217268359Y-80646000D02*
X217575641Y-80646000D01*
X217268359Y-81406000D02*
X217575641Y-81406000D01*
%TO.C,C4*%
X208682000Y-90852164D02*
X208682000Y-91067836D01*
X209402000Y-90852164D02*
X209402000Y-91067836D01*
%TO.C,SW1*%
X210440000Y-88008000D02*
X213740000Y-88008000D01*
X210440000Y-88308000D02*
X210440000Y-88008000D01*
X210440000Y-90508000D02*
X210440000Y-90808000D01*
X210440000Y-90808000D02*
X213740000Y-90808000D01*
X213740000Y-88008000D02*
X213740000Y-88308000D01*
X213740000Y-90808000D02*
X213740000Y-90508000D01*
%TO.C,R1*%
X217044000Y-101624641D02*
X217044000Y-101317359D01*
X217804000Y-101624641D02*
X217804000Y-101317359D01*
%TO.C,R2*%
X208662000Y-88748359D02*
X208662000Y-89055641D01*
X209422000Y-88748359D02*
X209422000Y-89055641D01*
%TO.C,C3*%
X206396000Y-83303164D02*
X206396000Y-83518836D01*
X207116000Y-83303164D02*
X207116000Y-83518836D01*
%TO.C,U2*%
X212090000Y-80435000D02*
X209890000Y-80435000D01*
X212090000Y-80435000D02*
X214290000Y-80435000D01*
X212090000Y-87205000D02*
X209890000Y-87205000D01*
X212090000Y-87205000D02*
X214290000Y-87205000D01*
X208230000Y-80895000D02*
X207900000Y-81135000D01*
X207900000Y-80655000D01*
X208230000Y-80895000D01*
G36*
X208230000Y-80895000D02*
G01*
X207900000Y-81135000D01*
X207900000Y-80655000D01*
X208230000Y-80895000D01*
G37*
%TO.C,C1*%
X215517000Y-101359580D02*
X215517000Y-101078420D01*
X216537000Y-101359580D02*
X216537000Y-101078420D01*
%TO.C,U1*%
X208172000Y-96642000D02*
X209432000Y-96642000D01*
X208172000Y-100402000D02*
X208172000Y-96642000D01*
X214992000Y-96642000D02*
X213732000Y-96642000D01*
X214992000Y-100402000D02*
X214992000Y-96642000D01*
X208272000Y-101682000D02*
X207942000Y-101922000D01*
X207942000Y-101442000D01*
X208272000Y-101682000D01*
G36*
X208272000Y-101682000D02*
G01*
X207942000Y-101922000D01*
X207942000Y-101442000D01*
X208272000Y-101682000D01*
G37*
%TO.C,C2*%
X212216420Y-92822000D02*
X212497580Y-92822000D01*
X212216420Y-93842000D02*
X212497580Y-93842000D01*
%TO.C,J1*%
X213360000Y-75184000D02*
X213995000Y-75184000D01*
X213995000Y-75184000D02*
X213995000Y-75819000D01*
%TO.C,R3*%
X217268359Y-81662000D02*
X217575641Y-81662000D01*
X217268359Y-82422000D02*
X217575641Y-82422000D01*
%TO.C,D1*%
X215304000Y-97944000D02*
X215304000Y-99414000D01*
X215304000Y-99414000D02*
X217589000Y-99414000D01*
X217589000Y-97944000D02*
X215304000Y-97944000D01*
%TD*%
M02*
