%TF.GenerationSoftware,KiCad,Pcbnew,9.0.7*%
%TF.CreationDate,2026-07-14T15:21:33-04:00*%
%TF.ProjectId,STM32C011F6_devboard,53544d33-3243-4303-9131-46365f646576,rev?*%
%TF.SameCoordinates,Original*%
%TF.FileFunction,Copper,L1,Top*%
%TF.FilePolarity,Positive*%
%FSLAX46Y46*%
G04 Gerber Fmt 4.6, Leading zero omitted, Abs format (unit mm)*
G04 Created by KiCad (PCBNEW 9.0.7) date 2026-07-14 15:21:33*
%MOMM*%
%LPD*%
G01*
G04 APERTURE LIST*
G04 Aperture macros list*
%AMRoundRect*
0 Rectangle with rounded corners*
0 $1 Rounding radius*
0 $2 $3 $4 $5 $6 $7 $8 $9 X,Y pos of 4 corners*
0 Add a 4 corners polygon primitive as box body*
4,1,4,$2,$3,$4,$5,$6,$7,$8,$9,$2,$3,0*
0 Add four circle primitives for the rounded corners*
1,1,$1+$1,$2,$3*
1,1,$1+$1,$4,$5*
1,1,$1+$1,$6,$7*
1,1,$1+$1,$8,$9*
0 Add four rect primitives between the rounded corners*
20,1,$1+$1,$2,$3,$4,$5,0*
20,1,$1+$1,$4,$5,$6,$7,0*
20,1,$1+$1,$6,$7,$8,$9,0*
20,1,$1+$1,$8,$9,$2,$3,0*%
G04 Aperture macros list end*
%TA.AperFunction,SMDPad,CuDef*%
%ADD10RoundRect,0.135000X-0.135000X-0.185000X0.135000X-0.185000X0.135000X0.185000X-0.135000X0.185000X0*%
%TD*%
%TA.AperFunction,SMDPad,CuDef*%
%ADD11RoundRect,0.140000X-0.170000X0.140000X-0.170000X-0.140000X0.170000X-0.140000X0.170000X0.140000X0*%
%TD*%
%TA.AperFunction,SMDPad,CuDef*%
%ADD12R,0.900000X1.700000*%
%TD*%
%TA.AperFunction,SMDPad,CuDef*%
%ADD13RoundRect,0.135000X0.185000X-0.135000X0.185000X0.135000X-0.185000X0.135000X-0.185000X-0.135000X0*%
%TD*%
%TA.AperFunction,SMDPad,CuDef*%
%ADD14RoundRect,0.135000X-0.185000X0.135000X-0.185000X-0.135000X0.185000X-0.135000X0.185000X0.135000X0*%
%TD*%
%TA.AperFunction,SMDPad,CuDef*%
%ADD15RoundRect,0.100000X-0.637500X-0.100000X0.637500X-0.100000X0.637500X0.100000X-0.637500X0.100000X0*%
%TD*%
%TA.AperFunction,SMDPad,CuDef*%
%ADD16RoundRect,0.225000X0.250000X-0.225000X0.250000X0.225000X-0.250000X0.225000X-0.250000X-0.225000X0*%
%TD*%
%TA.AperFunction,SMDPad,CuDef*%
%ADD17RoundRect,0.375000X0.375000X-0.625000X0.375000X0.625000X-0.375000X0.625000X-0.375000X-0.625000X0*%
%TD*%
%TA.AperFunction,SMDPad,CuDef*%
%ADD18RoundRect,0.500000X1.400000X-0.500000X1.400000X0.500000X-1.400000X0.500000X-1.400000X-0.500000X0*%
%TD*%
%TA.AperFunction,SMDPad,CuDef*%
%ADD19RoundRect,0.225000X-0.225000X-0.250000X0.225000X-0.250000X0.225000X0.250000X-0.225000X0.250000X0*%
%TD*%
%TA.AperFunction,ConnectorPad*%
%ADD20C,0.787400*%
%TD*%
%TA.AperFunction,SMDPad,CuDef*%
%ADD21RoundRect,0.218750X-0.218750X-0.256250X0.218750X-0.256250X0.218750X0.256250X-0.218750X0.256250X0*%
%TD*%
%TA.AperFunction,ComponentPad*%
%ADD22C,1.700000*%
%TD*%
%TA.AperFunction,ViaPad*%
%ADD23C,0.711200*%
%TD*%
%TA.AperFunction,Conductor*%
%ADD24C,0.381000*%
%TD*%
%TA.AperFunction,Conductor*%
%ADD25C,0.635000*%
%TD*%
%TA.AperFunction,Conductor*%
%ADD26C,0.508000*%
%TD*%
%TA.AperFunction,Conductor*%
%ADD27C,0.317500*%
%TD*%
G04 APERTURE END LIST*
D10*
%TO.P,R4,1*%
%TO.N,/PA14*%
X216912000Y-81026000D03*
%TO.P,R4,2*%
%TO.N,/SWCLK*%
X217932000Y-81026000D03*
%TD*%
D11*
%TO.P,C4,1*%
%TO.N,/RESET*%
X209042000Y-90480000D03*
%TO.P,C4,2*%
%TO.N,GND*%
X209042000Y-91440000D03*
%TD*%
D12*
%TO.P,SW1,1,A*%
%TO.N,/RESET*%
X210390000Y-89408000D03*
%TO.P,SW1,2,B*%
%TO.N,GND*%
X213790000Y-89408000D03*
%TD*%
D13*
%TO.P,R1,1*%
%TO.N,VCC*%
X217424000Y-101981000D03*
%TO.P,R1,2*%
%TO.N,Net-(D1-A)*%
X217424000Y-100961000D03*
%TD*%
D14*
%TO.P,R2,1*%
%TO.N,+3V3*%
X209042000Y-88392000D03*
%TO.P,R2,2*%
%TO.N,/RESET*%
X209042000Y-89412000D03*
%TD*%
D11*
%TO.P,C3,1*%
%TO.N,+3V3*%
X206756000Y-82931000D03*
%TO.P,C3,2*%
%TO.N,GND*%
X206756000Y-83891000D03*
%TD*%
D15*
%TO.P,U2,1,PB7*%
%TO.N,/PB7*%
X209227500Y-80895000D03*
%TO.P,U2,2,PC14*%
%TO.N,/PC14*%
X209227500Y-81545000D03*
%TO.P,U2,3,PC15*%
%TO.N,/PC15*%
X209227500Y-82195000D03*
%TO.P,U2,4,VDD*%
%TO.N,+3V3*%
X209227500Y-82845000D03*
%TO.P,U2,5,VSS*%
%TO.N,GND*%
X209227500Y-83495000D03*
%TO.P,U2,6,PF2*%
%TO.N,/RESET*%
X209227500Y-84145000D03*
%TO.P,U2,7,PA0*%
%TO.N,/PA0*%
X209227500Y-84795000D03*
%TO.P,U2,8,PA1*%
%TO.N,/PA1*%
X209227500Y-85445000D03*
%TO.P,U2,9,PA2*%
%TO.N,/PA2*%
X209227500Y-86095000D03*
%TO.P,U2,10,PA3*%
%TO.N,/PA3*%
X209227500Y-86745000D03*
%TO.P,U2,11,PA4*%
%TO.N,/PA4*%
X214952500Y-86745000D03*
%TO.P,U2,12,PA5*%
%TO.N,/PA5*%
X214952500Y-86095000D03*
%TO.P,U2,13,PA6*%
%TO.N,/PA6*%
X214952500Y-85445000D03*
%TO.P,U2,14,PA7*%
%TO.N,/PA7*%
X214952500Y-84795000D03*
%TO.P,U2,15,PA8*%
%TO.N,/PA8*%
X214952500Y-84145000D03*
%TO.P,U2,16,PA9/PA11*%
%TO.N,/PA9{slash}PA11*%
X214952500Y-83495000D03*
%TO.P,U2,17,PA10/PA12*%
%TO.N,/PA10{slash}PA12*%
X214952500Y-82845000D03*
%TO.P,U2,18,PA13*%
%TO.N,/PA13*%
X214952500Y-82195000D03*
%TO.P,U2,19,PA14*%
%TO.N,/PA14*%
X214952500Y-81545000D03*
%TO.P,U2,20,PB6*%
%TO.N,/PB6*%
X214952500Y-80895000D03*
%TD*%
D16*
%TO.P,C1,1*%
%TO.N,VCC*%
X216027000Y-101994000D03*
%TO.P,C1,2*%
%TO.N,GND*%
X216027000Y-100444000D03*
%TD*%
D17*
%TO.P,U1,1,GND*%
%TO.N,GND*%
X209282000Y-101702000D03*
%TO.P,U1,2,VO*%
%TO.N,+3V3*%
X211582000Y-101702000D03*
D18*
X211582000Y-95402000D03*
D17*
%TO.P,U1,3,VI*%
%TO.N,VCC*%
X213882000Y-101702000D03*
%TD*%
D19*
%TO.P,C2,1*%
%TO.N,+3V3*%
X211582000Y-93332000D03*
%TO.P,C2,2*%
%TO.N,GND*%
X213132000Y-93332000D03*
%TD*%
D20*
%TO.P,J1,1*%
%TO.N,VCC*%
X213360000Y-75819000D03*
%TO.P,J1,2*%
%TO.N,/SWDIO*%
X213360000Y-77089000D03*
%TO.P,J1,3*%
%TO.N,/RESET*%
X212090000Y-75819000D03*
%TO.P,J1,4*%
%TO.N,/SWCLK*%
X212090000Y-77089000D03*
%TO.P,J1,5*%
%TO.N,GND*%
X210820000Y-75819000D03*
%TO.P,J1,6*%
%TO.N,unconnected-(J1-Pad6)*%
X210820000Y-77089000D03*
%TD*%
D10*
%TO.P,R3,1*%
%TO.N,/PA13*%
X216912000Y-82042000D03*
%TO.P,R3,2*%
%TO.N,/SWDIO*%
X217932000Y-82042000D03*
%TD*%
D21*
%TO.P,D1,1,K*%
%TO.N,GND*%
X216001500Y-98679000D03*
%TO.P,D1,2,A*%
%TO.N,Net-(D1-A)*%
X217576500Y-98679000D03*
%TD*%
D22*
%TO.P,J3,1,Pin_1*%
%TO.N,VCC*%
X220980000Y-76200000D03*
%TO.P,J3,2,Pin_2*%
%TO.N,/PB6*%
X220980000Y-78740000D03*
%TO.P,J3,3,Pin_3*%
%TO.N,/SWCLK*%
X220980000Y-81280000D03*
%TO.P,J3,4,Pin_4*%
%TO.N,/SWDIO*%
X220980000Y-83820000D03*
%TO.P,J3,5,Pin_5*%
%TO.N,/PA10{slash}PA12*%
X220980000Y-86360000D03*
%TO.P,J3,6,Pin_6*%
%TO.N,/PA9{slash}PA11*%
X220980000Y-88900000D03*
%TO.P,J3,7,Pin_7*%
%TO.N,/PA8*%
X220980000Y-91440000D03*
%TO.P,J3,8,Pin_8*%
%TO.N,/PA7*%
X220980000Y-93980000D03*
%TO.P,J3,9,Pin_9*%
%TO.N,/PA6*%
X220980000Y-96520000D03*
%TO.P,J3,10,Pin_10*%
%TO.N,/PA5*%
X220980000Y-99060000D03*
%TO.P,J3,11,Pin_11*%
%TO.N,/PA4*%
X220980000Y-101600000D03*
%TD*%
%TO.P,J2,1,Pin_1*%
%TO.N,GND*%
X203200000Y-76200000D03*
%TO.P,J2,2,Pin_2*%
%TO.N,/PB7*%
X203200000Y-78740000D03*
%TO.P,J2,3,Pin_3*%
%TO.N,/PC14*%
X203200000Y-81280000D03*
%TO.P,J2,4,Pin_4*%
%TO.N,/PC15*%
X203200000Y-83820000D03*
%TO.P,J2,5,Pin_5*%
%TO.N,+3V3*%
X203200000Y-86360000D03*
%TO.P,J2,6,Pin_6*%
%TO.N,GND*%
X203200000Y-88900000D03*
%TO.P,J2,7,Pin_7*%
%TO.N,/RESET*%
X203200000Y-91440000D03*
%TO.P,J2,8,Pin_8*%
%TO.N,/PA0*%
X203200000Y-93980000D03*
%TO.P,J2,9,Pin_9*%
%TO.N,/PA1*%
X203200000Y-96520000D03*
%TO.P,J2,10,Pin_10*%
%TO.N,/PA2*%
X203200000Y-99060000D03*
%TO.P,J2,11,Pin_11*%
%TO.N,/PA3*%
X203200000Y-101600000D03*
%TD*%
D23*
%TO.N,GND*%
X212090000Y-83566000D03*
X214376000Y-93091000D03*
X215900000Y-76454000D03*
X214376000Y-91186000D03*
X206121000Y-84709000D03*
X212217000Y-88265000D03*
X216408000Y-79041651D03*
X212217000Y-90424000D03*
X214249000Y-88011000D03*
X214503000Y-89408000D03*
X207518000Y-101981000D03*
X214503000Y-99695000D03*
X209550000Y-78740000D03*
X212090000Y-86741000D03*
X211074000Y-81661000D03*
X218440000Y-77470000D03*
X212090000Y-81026000D03*
X208280000Y-75438000D03*
X209296000Y-100203000D03*
X214503000Y-98679000D03*
X209042000Y-92329000D03*
X208153000Y-91440000D03*
%TO.N,+3V3*%
X211074000Y-82931000D03*
X209423000Y-87884000D03*
X210439000Y-92075000D03*
%TO.N,VCC*%
X215011000Y-101981000D03*
%TO.N,/SWCLK*%
X217583999Y-80358001D03*
%TO.N,/PB6*%
X215773000Y-80518000D03*
%TO.N,/PA4*%
X215218350Y-91994650D03*
%TO.N,/RESET*%
X211561281Y-75225975D03*
X208534000Y-89916000D03*
X207899850Y-84080650D03*
%TD*%
D24*
%TO.N,+3V3*%
X209423000Y-87884000D02*
X209042000Y-88265000D01*
X206756000Y-82931000D02*
X206629000Y-82931000D01*
D25*
X211582000Y-101969000D02*
X211582000Y-93599000D01*
D24*
X206629000Y-82931000D02*
X203200000Y-86360000D01*
D25*
X210566000Y-92075000D02*
X211582000Y-93091000D01*
D24*
X210988000Y-82845000D02*
X209227500Y-82845000D01*
X209042000Y-88265000D02*
X209042000Y-88392000D01*
D25*
X211582000Y-93091000D02*
X211582000Y-93599000D01*
X210439000Y-92075000D02*
X210566000Y-92075000D01*
D24*
X206842000Y-82845000D02*
X206756000Y-82931000D01*
X209227500Y-82845000D02*
X206842000Y-82845000D01*
X211074000Y-82931000D02*
X210988000Y-82845000D01*
D26*
%TO.N,VCC*%
X220205301Y-75425301D02*
X220980000Y-76200000D01*
X213894000Y-101981000D02*
X213882000Y-101969000D01*
X213753699Y-75425301D02*
X220205301Y-75425301D01*
X215011000Y-101981000D02*
X213894000Y-101981000D01*
X217424000Y-101981000D02*
X215011000Y-101981000D01*
X213360000Y-75819000D02*
X213753699Y-75425301D01*
D24*
%TO.N,Net-(D1-A)*%
X217424000Y-98831500D02*
X217576500Y-98679000D01*
X217424000Y-100961000D02*
X217424000Y-98831500D01*
D27*
%TO.N,/SWDIO*%
X217678000Y-78232000D02*
X214503000Y-78232000D01*
X218948000Y-81788000D02*
X218948000Y-79502000D01*
X218948000Y-81788000D02*
X218948000Y-82042000D01*
X217932000Y-82042000D02*
X218694000Y-82042000D01*
X218948000Y-79502000D02*
X217678000Y-78232000D01*
X218948000Y-82042000D02*
X220726000Y-83820000D01*
X220726000Y-83820000D02*
X220980000Y-83820000D01*
X218694000Y-82042000D02*
X218948000Y-81788000D01*
X214503000Y-78232000D02*
X213360000Y-77089000D01*
%TO.N,/SWCLK*%
X214376000Y-79756000D02*
X212090000Y-77470000D01*
X212090000Y-77470000D02*
X212090000Y-77089000D01*
X217583999Y-80358001D02*
X216981999Y-79756000D01*
X217932000Y-81026000D02*
X217932000Y-80706001D01*
X217932000Y-80706001D02*
X217583999Y-80358001D01*
X216981999Y-79756000D02*
X214376000Y-79756000D01*
%TO.N,/PA13*%
X216759000Y-82195000D02*
X216912000Y-82042000D01*
X214952500Y-82195000D02*
X216759000Y-82195000D01*
%TO.N,/PA14*%
X216642001Y-81026000D02*
X216123001Y-81545000D01*
X216912000Y-81026000D02*
X216642001Y-81026000D01*
X216123001Y-81545000D02*
X214952500Y-81545000D01*
%TO.N,/PA2*%
X206502000Y-95758000D02*
X203200000Y-99060000D01*
X208037000Y-86095000D02*
X206502000Y-87630000D01*
X206502000Y-87630000D02*
X206502000Y-95758000D01*
X209227500Y-86095000D02*
X208037000Y-86095000D01*
%TO.N,/PA5*%
X215889000Y-86095000D02*
X216408000Y-86614000D01*
X214952500Y-86095000D02*
X215889000Y-86095000D01*
X216408000Y-86614000D02*
X216408000Y-94488000D01*
X216408000Y-94488000D02*
X220980000Y-99060000D01*
%TO.N,/PA0*%
X209227500Y-84795000D02*
X207559000Y-84795000D01*
X204978000Y-92202000D02*
X203200000Y-93980000D01*
X207559000Y-84795000D02*
X204978000Y-87376000D01*
X204978000Y-87376000D02*
X204978000Y-92202000D01*
%TO.N,/PA6*%
X217170000Y-92710000D02*
X217170000Y-86360000D01*
X217170000Y-86360000D02*
X216255000Y-85445000D01*
X216255000Y-85445000D02*
X214952500Y-85445000D01*
X220980000Y-96520000D02*
X217170000Y-92710000D01*
%TO.N,/PB6*%
X215396000Y-80895000D02*
X214952500Y-80895000D01*
X215773000Y-80518000D02*
X215396000Y-80895000D01*
%TO.N,/PA7*%
X216410978Y-84795000D02*
X217932000Y-86316022D01*
X217932000Y-90932000D02*
X220980000Y-93980000D01*
X214952500Y-84795000D02*
X216410978Y-84795000D01*
X217932000Y-86316022D02*
X217932000Y-90932000D01*
%TO.N,/PA8*%
X218694000Y-86106000D02*
X218694000Y-89154000D01*
X216733000Y-84145000D02*
X218694000Y-86106000D01*
X218694000Y-89154000D02*
X220980000Y-91440000D01*
X214952500Y-84145000D02*
X216733000Y-84145000D01*
%TO.N,/PC15*%
X209227500Y-82195000D02*
X205587000Y-82195000D01*
X203962000Y-83820000D02*
X203200000Y-83820000D01*
X205587000Y-82195000D02*
X203962000Y-83820000D01*
%TO.N,/PB7*%
X206248000Y-78740000D02*
X203200000Y-78740000D01*
X208403000Y-80895000D02*
X206248000Y-78740000D01*
X209227500Y-80895000D02*
X208403000Y-80895000D01*
%TO.N,/PA10{slash}PA12*%
X214952500Y-82845000D02*
X217465000Y-82845000D01*
X217465000Y-82845000D02*
X220980000Y-86360000D01*
%TO.N,/PA3*%
X207264000Y-87884000D02*
X207264000Y-97536000D01*
X209227500Y-86745000D02*
X208403000Y-86745000D01*
X208403000Y-86745000D02*
X207264000Y-87884000D01*
X207264000Y-97536000D02*
X203200000Y-101600000D01*
%TO.N,/PA4*%
X215218350Y-91994650D02*
X215218350Y-87010850D01*
X215218350Y-87010850D02*
X214952500Y-86745000D01*
%TO.N,/PA1*%
X209227500Y-85445000D02*
X207896270Y-85445000D01*
X207896270Y-85445000D02*
X205750500Y-87590770D01*
X205750500Y-93969500D02*
X203200000Y-96520000D01*
X205750500Y-87590770D02*
X205750500Y-93969500D01*
%TO.N,/PC14*%
X209227500Y-81545000D02*
X203465000Y-81545000D01*
X203465000Y-81545000D02*
X203200000Y-81280000D01*
%TO.N,/PA9{slash}PA11*%
X220980000Y-88900000D02*
X219456000Y-87376000D01*
X219456000Y-85852000D02*
X217099000Y-83495000D01*
X217099000Y-83495000D02*
X214952500Y-83495000D01*
X219456000Y-87376000D02*
X219456000Y-85852000D01*
D24*
%TO.N,/RESET*%
X209042000Y-89916000D02*
X209882000Y-89916000D01*
X207899850Y-84080650D02*
X207964200Y-84145000D01*
D25*
X209042000Y-89412000D02*
X209042000Y-89916000D01*
X209042000Y-89412000D02*
X209042000Y-90480000D01*
D24*
X208534000Y-89916000D02*
X209042000Y-89916000D01*
X212090000Y-75819000D02*
X211561281Y-75290281D01*
X207964200Y-84145000D02*
X209227500Y-84145000D01*
X211561281Y-75290281D02*
X211561281Y-75225975D01*
X209882000Y-89916000D02*
X210390000Y-89408000D01*
%TD*%
%TA.AperFunction,Conductor*%
%TO.N,GND*%
G36*
X211328541Y-74641216D02*
G01*
X211344057Y-74678675D01*
X211328541Y-74716134D01*
X211317570Y-74724551D01*
X211293474Y-74738463D01*
X211219827Y-74780983D01*
X211219827Y-74780984D01*
X211116290Y-74884521D01*
X211116289Y-74884521D01*
X211043078Y-75011327D01*
X211005181Y-75152761D01*
X211005181Y-75234216D01*
X210989665Y-75271675D01*
X210952206Y-75287191D01*
X210938495Y-75285386D01*
X210891896Y-75272900D01*
X210748104Y-75272900D01*
X210609212Y-75310116D01*
X210591024Y-75320617D01*
X210917244Y-75646837D01*
X210932760Y-75684296D01*
X210917244Y-75721755D01*
X210820000Y-75818999D01*
X210820000Y-76066463D01*
X210804484Y-76103922D01*
X210591024Y-76317381D01*
X210591024Y-76317382D01*
X210609212Y-76327883D01*
X210748104Y-76365100D01*
X210767025Y-76365100D01*
X210804484Y-76380616D01*
X210820000Y-76418075D01*
X210820000Y-76441825D01*
X210804484Y-76479284D01*
X210767025Y-76494800D01*
X210741771Y-76494800D01*
X210590646Y-76535294D01*
X210455153Y-76613521D01*
X210344521Y-76724153D01*
X210266294Y-76859646D01*
X210225800Y-77010770D01*
X210225800Y-77167229D01*
X210249451Y-77255494D01*
X210249452Y-77255498D01*
X210252523Y-77266964D01*
X210252524Y-77266965D01*
X210266294Y-77318354D01*
X210318433Y-77408660D01*
X210344522Y-77453847D01*
X210455153Y-77564478D01*
X210590647Y-77642706D01*
X210701277Y-77672349D01*
X210741771Y-77683200D01*
X210741772Y-77683200D01*
X210898229Y-77683200D01*
X210930165Y-77674642D01*
X211049353Y-77642706D01*
X211184847Y-77564478D01*
X211295478Y-77453847D01*
X211373706Y-77318353D01*
X211403830Y-77205928D01*
X211428513Y-77173762D01*
X211468711Y-77168470D01*
X211500878Y-77193153D01*
X211506170Y-77205929D01*
X211536294Y-77318353D01*
X211614521Y-77453846D01*
X211725154Y-77564479D01*
X211725157Y-77564481D01*
X211727725Y-77565964D01*
X211749052Y-77589032D01*
X211751147Y-77593425D01*
X211755232Y-77608666D01*
X211772543Y-77638650D01*
X211773578Y-77640443D01*
X211773583Y-77640453D01*
X211802526Y-77690583D01*
X211872432Y-77760489D01*
X211872438Y-77760494D01*
X214086673Y-79974729D01*
X214086678Y-79974735D01*
X214088528Y-79976585D01*
X214155415Y-80043472D01*
X214206575Y-80073009D01*
X214237334Y-80090768D01*
X214304221Y-80108689D01*
X214328703Y-80115250D01*
X214328704Y-80115250D01*
X215271643Y-80115250D01*
X215309102Y-80130766D01*
X215324618Y-80168225D01*
X215317521Y-80194712D01*
X215254797Y-80303352D01*
X215216899Y-80444789D01*
X215216447Y-80448227D01*
X215214244Y-80447937D01*
X215201384Y-80478984D01*
X215163925Y-80494500D01*
X214270131Y-80494500D01*
X214245010Y-80497414D01*
X214245006Y-80497416D01*
X214142235Y-80542794D01*
X214062794Y-80622235D01*
X214017414Y-80725008D01*
X214015525Y-80741296D01*
X214014501Y-80750131D01*
X214014500Y-80750136D01*
X214014500Y-81039868D01*
X214017414Y-81064989D01*
X214017415Y-81064991D01*
X214062794Y-81167765D01*
X214062796Y-81167767D01*
X214077570Y-81182541D01*
X214093086Y-81220000D01*
X214077570Y-81257459D01*
X214062794Y-81272235D01*
X214017414Y-81375008D01*
X214014774Y-81397769D01*
X214014501Y-81400131D01*
X214014500Y-81400136D01*
X214014500Y-81689868D01*
X214017414Y-81714989D01*
X214017415Y-81714991D01*
X214062794Y-81817765D01*
X214062796Y-81817767D01*
X214077570Y-81832541D01*
X214093086Y-81870000D01*
X214077570Y-81907459D01*
X214062794Y-81922235D01*
X214017414Y-82025008D01*
X214014774Y-82047769D01*
X214014501Y-82050131D01*
X214014500Y-82050136D01*
X214014500Y-82339868D01*
X214017414Y-82364989D01*
X214017415Y-82364991D01*
X214062794Y-82467765D01*
X214062796Y-82467767D01*
X214077570Y-82482541D01*
X214093086Y-82520000D01*
X214077570Y-82557459D01*
X214062794Y-82572235D01*
X214017414Y-82675008D01*
X214014500Y-82700136D01*
X214014500Y-82989868D01*
X214017414Y-83014989D01*
X214017415Y-83014991D01*
X214062794Y-83117765D01*
X214062796Y-83117767D01*
X214077570Y-83132541D01*
X214093086Y-83170000D01*
X214077570Y-83207459D01*
X214062794Y-83222235D01*
X214017414Y-83325008D01*
X214014500Y-83350136D01*
X214014500Y-83639868D01*
X214017414Y-83664989D01*
X214017415Y-83664991D01*
X214062794Y-83767765D01*
X214062796Y-83767767D01*
X214077570Y-83782541D01*
X214093086Y-83820000D01*
X214077570Y-83857459D01*
X214062794Y-83872235D01*
X214017414Y-83975008D01*
X214014774Y-83997769D01*
X214014501Y-84000131D01*
X214014500Y-84000136D01*
X214014500Y-84289868D01*
X214017414Y-84314989D01*
X214017415Y-84314991D01*
X214062794Y-84417765D01*
X214062796Y-84417767D01*
X214077570Y-84432541D01*
X214093086Y-84470000D01*
X214077570Y-84507459D01*
X214062794Y-84522235D01*
X214017414Y-84625008D01*
X214014774Y-84647769D01*
X214014501Y-84650131D01*
X214014500Y-84650136D01*
X214014500Y-84939868D01*
X214017414Y-84964989D01*
X214017415Y-84964991D01*
X214062794Y-85067765D01*
X214062796Y-85067767D01*
X214077570Y-85082541D01*
X214093086Y-85120000D01*
X214077570Y-85157459D01*
X214062794Y-85172235D01*
X214017414Y-85275008D01*
X214014774Y-85297769D01*
X214014501Y-85300131D01*
X214014500Y-85300136D01*
X214014500Y-85589868D01*
X214017414Y-85614989D01*
X214017415Y-85614991D01*
X214062794Y-85717765D01*
X214062796Y-85717767D01*
X214077570Y-85732541D01*
X214093086Y-85770000D01*
X214077570Y-85807459D01*
X214062794Y-85822235D01*
X214017414Y-85925008D01*
X214014866Y-85946982D01*
X214014501Y-85950131D01*
X214014500Y-85950136D01*
X214014500Y-86239868D01*
X214017414Y-86264989D01*
X214017415Y-86264991D01*
X214062794Y-86367765D01*
X214062796Y-86367767D01*
X214077570Y-86382541D01*
X214093086Y-86420000D01*
X214077570Y-86457459D01*
X214062794Y-86472235D01*
X214017414Y-86575008D01*
X214014774Y-86597769D01*
X214014501Y-86600131D01*
X214014500Y-86600136D01*
X214014500Y-86889868D01*
X214017414Y-86914989D01*
X214017415Y-86914991D01*
X214062794Y-87017765D01*
X214142235Y-87097206D01*
X214213528Y-87128685D01*
X214245008Y-87142585D01*
X214245007Y-87142585D01*
X214249332Y-87143086D01*
X214270135Y-87145500D01*
X214806125Y-87145499D01*
X214843584Y-87161015D01*
X214859100Y-87198474D01*
X214859100Y-91545512D01*
X214843584Y-91582971D01*
X214773359Y-91653196D01*
X214773358Y-91653196D01*
X214700147Y-91780002D01*
X214662250Y-91921436D01*
X214662250Y-92067863D01*
X214673448Y-92109655D01*
X214700147Y-92209297D01*
X214773359Y-92336104D01*
X214876896Y-92439641D01*
X215003703Y-92512853D01*
X215102219Y-92539250D01*
X215145137Y-92550750D01*
X215145138Y-92550750D01*
X215291563Y-92550750D01*
X215334481Y-92539250D01*
X215432997Y-92512853D01*
X215559804Y-92439641D01*
X215663341Y-92336104D01*
X215736553Y-92209297D01*
X215766441Y-92097751D01*
X215774450Y-92067863D01*
X215774450Y-91921436D01*
X215748719Y-91825407D01*
X215736553Y-91780003D01*
X215663341Y-91653196D01*
X215593116Y-91582971D01*
X215577600Y-91545512D01*
X215577600Y-87198474D01*
X215593116Y-87161015D01*
X215630575Y-87145499D01*
X215634869Y-87145499D01*
X215652811Y-87143417D01*
X215659991Y-87142585D01*
X215762765Y-87097206D01*
X215842206Y-87017765D01*
X215887585Y-86914991D01*
X215890500Y-86889865D01*
X215890499Y-86732446D01*
X215906015Y-86694989D01*
X215943474Y-86679473D01*
X215980933Y-86694989D01*
X216033234Y-86747290D01*
X216048750Y-86784749D01*
X216048750Y-94437447D01*
X216048749Y-94437465D01*
X216048749Y-94535296D01*
X216073232Y-94626667D01*
X216079083Y-94636801D01*
X216086505Y-94649655D01*
X216120527Y-94708584D01*
X216190432Y-94778489D01*
X216190438Y-94778494D01*
X220002145Y-98590201D01*
X220017661Y-98627660D01*
X220013629Y-98647932D01*
X219969872Y-98753573D01*
X219969870Y-98753580D01*
X219929500Y-98956534D01*
X219929500Y-99163465D01*
X219955840Y-99295889D01*
X219969870Y-99366420D01*
X220018434Y-99483663D01*
X220049059Y-99557599D01*
X220164023Y-99729655D01*
X220310345Y-99875977D01*
X220395789Y-99933069D01*
X220482400Y-99990940D01*
X220482401Y-99990940D01*
X220482402Y-99990941D01*
X220673580Y-100070130D01*
X220808883Y-100097043D01*
X220876534Y-100110500D01*
X220876535Y-100110500D01*
X221083465Y-100110500D01*
X221286420Y-100070130D01*
X221477598Y-99990941D01*
X221649655Y-99875977D01*
X221795977Y-99729655D01*
X221910941Y-99557598D01*
X221990130Y-99366420D01*
X222030500Y-99163465D01*
X222030500Y-98956535D01*
X221990130Y-98753580D01*
X221910941Y-98562402D01*
X221795977Y-98390345D01*
X221649655Y-98244023D01*
X221589904Y-98204099D01*
X221477599Y-98129059D01*
X221401797Y-98097661D01*
X221286420Y-98049870D01*
X221286415Y-98049869D01*
X221286417Y-98049869D01*
X221083466Y-98009500D01*
X221083465Y-98009500D01*
X220876535Y-98009500D01*
X220876534Y-98009500D01*
X220673580Y-98049870D01*
X220673573Y-98049872D01*
X220567932Y-98093629D01*
X220527387Y-98093628D01*
X220510201Y-98082145D01*
X216782766Y-94354710D01*
X216767250Y-94317251D01*
X216767250Y-92928623D01*
X216782766Y-92891164D01*
X216820225Y-92875648D01*
X216857684Y-92891164D01*
X216866103Y-92902136D01*
X216882526Y-92930583D01*
X216952432Y-93000489D01*
X216952438Y-93000494D01*
X220002145Y-96050202D01*
X220017661Y-96087661D01*
X220013629Y-96107933D01*
X219969872Y-96213573D01*
X219969870Y-96213580D01*
X219945284Y-96337185D01*
X219929500Y-96416535D01*
X219929500Y-96623465D01*
X219969870Y-96826420D01*
X220018434Y-96943663D01*
X220049059Y-97017599D01*
X220164023Y-97189655D01*
X220310345Y-97335977D01*
X220386997Y-97387194D01*
X220482400Y-97450940D01*
X220482401Y-97450940D01*
X220482402Y-97450941D01*
X220673580Y-97530130D01*
X220808883Y-97557043D01*
X220876534Y-97570500D01*
X220876535Y-97570500D01*
X221083465Y-97570500D01*
X221286420Y-97530130D01*
X221477598Y-97450941D01*
X221649655Y-97335977D01*
X221795977Y-97189655D01*
X221910941Y-97017598D01*
X221990130Y-96826420D01*
X222030500Y-96623465D01*
X222030500Y-96416535D01*
X221990130Y-96213580D01*
X221910941Y-96022402D01*
X221795977Y-95850345D01*
X221649655Y-95704023D01*
X221477599Y-95589059D01*
X221401797Y-95557661D01*
X221286420Y-95509870D01*
X221286415Y-95509869D01*
X221286417Y-95509869D01*
X221083466Y-95469500D01*
X221083465Y-95469500D01*
X220876535Y-95469500D01*
X220876534Y-95469500D01*
X220673580Y-95509870D01*
X220673573Y-95509872D01*
X220567933Y-95553629D01*
X220527388Y-95553628D01*
X220510202Y-95542145D01*
X217544766Y-92576709D01*
X217529250Y-92539250D01*
X217529250Y-91150623D01*
X217544766Y-91113164D01*
X217582225Y-91097648D01*
X217619684Y-91113164D01*
X217628103Y-91124136D01*
X217644526Y-91152583D01*
X217714432Y-91222489D01*
X217714438Y-91222494D01*
X220002145Y-93510201D01*
X220017661Y-93547660D01*
X220013629Y-93567932D01*
X219969872Y-93673573D01*
X219969870Y-93673580D01*
X219929500Y-93876534D01*
X219929500Y-94083465D01*
X219964320Y-94258521D01*
X219969870Y-94286420D01*
X219982641Y-94317251D01*
X220049059Y-94477599D01*
X220164023Y-94649655D01*
X220310344Y-94795976D01*
X220482400Y-94910940D01*
X220482401Y-94910940D01*
X220482402Y-94910941D01*
X220673580Y-94990130D01*
X220808883Y-95017043D01*
X220876534Y-95030500D01*
X220876535Y-95030500D01*
X221083465Y-95030500D01*
X221286420Y-94990130D01*
X221477598Y-94910941D01*
X221649655Y-94795977D01*
X221795977Y-94649655D01*
X221910941Y-94477598D01*
X221990130Y-94286420D01*
X222030500Y-94083465D01*
X222030500Y-93876535D01*
X221990130Y-93673580D01*
X221910941Y-93482402D01*
X221795977Y-93310345D01*
X221649655Y-93164023D01*
X221615947Y-93141500D01*
X221477599Y-93049059D01*
X221401797Y-93017661D01*
X221286420Y-92969870D01*
X221286415Y-92969869D01*
X221286417Y-92969869D01*
X221083466Y-92929500D01*
X221083465Y-92929500D01*
X220876535Y-92929500D01*
X220876534Y-92929500D01*
X220673580Y-92969870D01*
X220673573Y-92969872D01*
X220567932Y-93013629D01*
X220527387Y-93013628D01*
X220510201Y-93002145D01*
X218306766Y-90798710D01*
X218291250Y-90761251D01*
X218291250Y-89372623D01*
X218306766Y-89335164D01*
X218344225Y-89319648D01*
X218381684Y-89335164D01*
X218390103Y-89346136D01*
X218406526Y-89374583D01*
X218476432Y-89444489D01*
X218476438Y-89444494D01*
X220002145Y-90970201D01*
X220017661Y-91007660D01*
X220013629Y-91027932D01*
X219969872Y-91133573D01*
X219969870Y-91133580D01*
X219929500Y-91336534D01*
X219929500Y-91543465D01*
X219946714Y-91630009D01*
X219969870Y-91746420D01*
X219983781Y-91780003D01*
X220049059Y-91937599D01*
X220164023Y-92109655D01*
X220310344Y-92255976D01*
X220482400Y-92370940D01*
X220482401Y-92370940D01*
X220482402Y-92370941D01*
X220673580Y-92450130D01*
X220808883Y-92477043D01*
X220876534Y-92490500D01*
X220876535Y-92490500D01*
X221083465Y-92490500D01*
X221286420Y-92450130D01*
X221477598Y-92370941D01*
X221649655Y-92255977D01*
X221795977Y-92109655D01*
X221910941Y-91937598D01*
X221990130Y-91746420D01*
X222030500Y-91543465D01*
X222030500Y-91336535D01*
X221990130Y-91133580D01*
X221910941Y-90942402D01*
X221908330Y-90938495D01*
X221795976Y-90770344D01*
X221649655Y-90624023D01*
X221477599Y-90509059D01*
X221404194Y-90478654D01*
X221286420Y-90429870D01*
X221286415Y-90429869D01*
X221286417Y-90429869D01*
X221083466Y-90389500D01*
X221083465Y-90389500D01*
X220876535Y-90389500D01*
X220876534Y-90389500D01*
X220673580Y-90429870D01*
X220673573Y-90429872D01*
X220567932Y-90473629D01*
X220527387Y-90473628D01*
X220510201Y-90462145D01*
X219068766Y-89020710D01*
X219053250Y-88983251D01*
X219053250Y-87594622D01*
X219068766Y-87557163D01*
X219106225Y-87541647D01*
X219143684Y-87557163D01*
X219152103Y-87568135D01*
X219168527Y-87596584D01*
X219238432Y-87666489D01*
X219238438Y-87666494D01*
X220002145Y-88430201D01*
X220017661Y-88467660D01*
X220013629Y-88487932D01*
X219969872Y-88593573D01*
X219969870Y-88593580D01*
X219929500Y-88796534D01*
X219929500Y-89003465D01*
X219969466Y-89204392D01*
X219969870Y-89206420D01*
X220008673Y-89300099D01*
X220049059Y-89397599D01*
X220121184Y-89505542D01*
X220164023Y-89569655D01*
X220310345Y-89715977D01*
X220395789Y-89773069D01*
X220482400Y-89830940D01*
X220482401Y-89830940D01*
X220482402Y-89830941D01*
X220673580Y-89910130D01*
X220808883Y-89937043D01*
X220876534Y-89950500D01*
X220876535Y-89950500D01*
X221083465Y-89950500D01*
X221286420Y-89910130D01*
X221477598Y-89830941D01*
X221649655Y-89715977D01*
X221795977Y-89569655D01*
X221910941Y-89397598D01*
X221990130Y-89206420D01*
X222030500Y-89003465D01*
X222030500Y-88796535D01*
X221990130Y-88593580D01*
X221910941Y-88402402D01*
X221910807Y-88402202D01*
X221795976Y-88230344D01*
X221649655Y-88084023D01*
X221477599Y-87969059D01*
X221424282Y-87946974D01*
X221286420Y-87889870D01*
X221286415Y-87889869D01*
X221286417Y-87889869D01*
X221083466Y-87849500D01*
X221083465Y-87849500D01*
X220876535Y-87849500D01*
X220876534Y-87849500D01*
X220673580Y-87889870D01*
X220673573Y-87889872D01*
X220567932Y-87933629D01*
X220527387Y-87933628D01*
X220510201Y-87922145D01*
X219830766Y-87242710D01*
X219815250Y-87205251D01*
X219815250Y-85831200D01*
X219830766Y-85793741D01*
X219868225Y-85778225D01*
X219905684Y-85793741D01*
X220002145Y-85890202D01*
X220017661Y-85927661D01*
X220013629Y-85947933D01*
X219969872Y-86053573D01*
X219969870Y-86053580D01*
X219929500Y-86256534D01*
X219929500Y-86463465D01*
X219951687Y-86575010D01*
X219969870Y-86666420D01*
X219975277Y-86679473D01*
X220049059Y-86857599D01*
X220156078Y-87017764D01*
X220164023Y-87029655D01*
X220310345Y-87175977D01*
X220354157Y-87205251D01*
X220482400Y-87290940D01*
X220482401Y-87290940D01*
X220482402Y-87290941D01*
X220673580Y-87370130D01*
X220808883Y-87397043D01*
X220876534Y-87410500D01*
X220876535Y-87410500D01*
X221083465Y-87410500D01*
X221286420Y-87370130D01*
X221477598Y-87290941D01*
X221649655Y-87175977D01*
X221795977Y-87029655D01*
X221910941Y-86857598D01*
X221990130Y-86666420D01*
X222030500Y-86463465D01*
X222030500Y-86256535D01*
X221990130Y-86053580D01*
X221910941Y-85862402D01*
X221884102Y-85822235D01*
X221824171Y-85732541D01*
X221795977Y-85690345D01*
X221649655Y-85544023D01*
X221477599Y-85429059D01*
X221424282Y-85406974D01*
X221286420Y-85349870D01*
X221286415Y-85349869D01*
X221286417Y-85349869D01*
X221083466Y-85309500D01*
X221083465Y-85309500D01*
X220876535Y-85309500D01*
X220876534Y-85309500D01*
X220673580Y-85349870D01*
X220673573Y-85349872D01*
X220567933Y-85393629D01*
X220527388Y-85393628D01*
X220510202Y-85382145D01*
X217780990Y-82652934D01*
X217765474Y-82615475D01*
X217780990Y-82578016D01*
X217818449Y-82562500D01*
X218106314Y-82562500D01*
X218106316Y-82562500D01*
X218155173Y-82556068D01*
X218262404Y-82506065D01*
X218346065Y-82422404D01*
X218346065Y-82422403D01*
X218349342Y-82419127D01*
X218350554Y-82420339D01*
X218379252Y-82402055D01*
X218388454Y-82401250D01*
X218643448Y-82401250D01*
X218643464Y-82401251D01*
X218646704Y-82401251D01*
X218741294Y-82401251D01*
X218741296Y-82401251D01*
X218757417Y-82396931D01*
X218797614Y-82402223D01*
X218808586Y-82410642D01*
X219940166Y-83542223D01*
X219955682Y-83579682D01*
X219954664Y-83590016D01*
X219929500Y-83716531D01*
X219929500Y-83923465D01*
X219964436Y-84099104D01*
X219969870Y-84126420D01*
X220018434Y-84243663D01*
X220049059Y-84317599D01*
X220164023Y-84489655D01*
X220310344Y-84635976D01*
X220482400Y-84750940D01*
X220482401Y-84750940D01*
X220482402Y-84750941D01*
X220673580Y-84830130D01*
X220808883Y-84857043D01*
X220876534Y-84870500D01*
X220876535Y-84870500D01*
X221083465Y-84870500D01*
X221286420Y-84830130D01*
X221477598Y-84750941D01*
X221649655Y-84635977D01*
X221795977Y-84489655D01*
X221910941Y-84317598D01*
X221990130Y-84126420D01*
X222030500Y-83923465D01*
X222030500Y-83716535D01*
X222027310Y-83700500D01*
X222003917Y-83582892D01*
X221990130Y-83513580D01*
X221910941Y-83322402D01*
X221898979Y-83304500D01*
X221844012Y-83222235D01*
X221795977Y-83150345D01*
X221649655Y-83004023D01*
X221477599Y-82889059D01*
X221424282Y-82866974D01*
X221286420Y-82809870D01*
X221286415Y-82809869D01*
X221286417Y-82809869D01*
X221083466Y-82769500D01*
X221083465Y-82769500D01*
X220876535Y-82769500D01*
X220876534Y-82769500D01*
X220673583Y-82809869D01*
X220673581Y-82809869D01*
X220673580Y-82809870D01*
X220602959Y-82839122D01*
X220482401Y-82889059D01*
X220411074Y-82936717D01*
X220371308Y-82944626D01*
X220344185Y-82930128D01*
X219322766Y-81908709D01*
X219307250Y-81871250D01*
X219307250Y-81176534D01*
X219929500Y-81176534D01*
X219929500Y-81383465D01*
X219968182Y-81577937D01*
X219969870Y-81586420D01*
X220012718Y-81689863D01*
X220049059Y-81777599D01*
X220164023Y-81949655D01*
X220310344Y-82095976D01*
X220482400Y-82210940D01*
X220482401Y-82210940D01*
X220482402Y-82210941D01*
X220673580Y-82290130D01*
X220808883Y-82317043D01*
X220876534Y-82330500D01*
X220876535Y-82330500D01*
X221083465Y-82330500D01*
X221286420Y-82290130D01*
X221477598Y-82210941D01*
X221649655Y-82095977D01*
X221795977Y-81949655D01*
X221910941Y-81777598D01*
X221990130Y-81586420D01*
X222030500Y-81383465D01*
X222030500Y-81176535D01*
X222028755Y-81167764D01*
X222008313Y-81064993D01*
X221990130Y-80973580D01*
X221910941Y-80782402D01*
X221889378Y-80750131D01*
X221819530Y-80645595D01*
X221795977Y-80610345D01*
X221649655Y-80464023D01*
X221477599Y-80349059D01*
X221424282Y-80326974D01*
X221286420Y-80269870D01*
X221286415Y-80269869D01*
X221286417Y-80269869D01*
X221083466Y-80229500D01*
X221083465Y-80229500D01*
X220876535Y-80229500D01*
X220876534Y-80229500D01*
X220673583Y-80269869D01*
X220673581Y-80269869D01*
X220673580Y-80269870D01*
X220637567Y-80284787D01*
X220482400Y-80349059D01*
X220310344Y-80464023D01*
X220164023Y-80610344D01*
X220049059Y-80782400D01*
X219969869Y-80973583D01*
X219929500Y-81176534D01*
X219307250Y-81176534D01*
X219307250Y-79454703D01*
X219298281Y-79421232D01*
X219295179Y-79409655D01*
X219282768Y-79363334D01*
X219265456Y-79333349D01*
X219235472Y-79281415D01*
X219168585Y-79214528D01*
X219166740Y-79212683D01*
X219166729Y-79212673D01*
X218590591Y-78636535D01*
X219929500Y-78636535D01*
X219929500Y-78843465D01*
X219969870Y-79046420D01*
X219991753Y-79099250D01*
X220049059Y-79237599D01*
X220164023Y-79409655D01*
X220310344Y-79555976D01*
X220482400Y-79670940D01*
X220482401Y-79670940D01*
X220482402Y-79670941D01*
X220673580Y-79750130D01*
X220808883Y-79777043D01*
X220876534Y-79790500D01*
X220876535Y-79790500D01*
X221083465Y-79790500D01*
X221286420Y-79750130D01*
X221477598Y-79670941D01*
X221649655Y-79555977D01*
X221795977Y-79409655D01*
X221910941Y-79237598D01*
X221990130Y-79046420D01*
X222030500Y-78843465D01*
X222030500Y-78636535D01*
X221990130Y-78433580D01*
X221910941Y-78242402D01*
X221795977Y-78070345D01*
X221649655Y-77924023D01*
X221572919Y-77872750D01*
X221477599Y-77809059D01*
X221424282Y-77786974D01*
X221286420Y-77729870D01*
X221286415Y-77729869D01*
X221286417Y-77729869D01*
X221083466Y-77689500D01*
X221083465Y-77689500D01*
X220876535Y-77689500D01*
X220876534Y-77689500D01*
X220673583Y-77729869D01*
X220673581Y-77729869D01*
X220673580Y-77729870D01*
X220630271Y-77747809D01*
X220482400Y-77809059D01*
X220310344Y-77924023D01*
X220164023Y-78070344D01*
X220049059Y-78242400D01*
X219969869Y-78433583D01*
X219935421Y-78606766D01*
X219929500Y-78636535D01*
X218590591Y-78636535D01*
X217968494Y-78014438D01*
X217968492Y-78014435D01*
X217898583Y-77944526D01*
X217846650Y-77914543D01*
X217816666Y-77897232D01*
X217725297Y-77872749D01*
X217725296Y-77872749D01*
X217630704Y-77872749D01*
X217627464Y-77872749D01*
X217627448Y-77872750D01*
X214673749Y-77872750D01*
X214636290Y-77857234D01*
X213969716Y-77190660D01*
X213954200Y-77153201D01*
X213954200Y-77010770D01*
X213934636Y-76937759D01*
X213913706Y-76859647D01*
X213835478Y-76724153D01*
X213724847Y-76613522D01*
X213724846Y-76613521D01*
X213589353Y-76535294D01*
X213476929Y-76505170D01*
X213444762Y-76480487D01*
X213439470Y-76440289D01*
X213464153Y-76408122D01*
X213476929Y-76402830D01*
X213589353Y-76372706D01*
X213724847Y-76294478D01*
X213835478Y-76183847D01*
X213913706Y-76048353D01*
X213948349Y-75919065D01*
X213973032Y-75886898D01*
X213999519Y-75879801D01*
X214195534Y-75879801D01*
X214232993Y-75895317D01*
X214248509Y-75932776D01*
X214232993Y-75970235D01*
X214146240Y-76056987D01*
X214078081Y-76158994D01*
X214031134Y-76272336D01*
X214031133Y-76272338D01*
X214007200Y-76392658D01*
X214007200Y-76515341D01*
X214031133Y-76635661D01*
X214031134Y-76635663D01*
X214078081Y-76749005D01*
X214143693Y-76847200D01*
X214146240Y-76851012D01*
X214232988Y-76937760D01*
X214334994Y-77005918D01*
X214448336Y-77052866D01*
X214568658Y-77076799D01*
X214568659Y-77076800D01*
X214568660Y-77076800D01*
X214691341Y-77076800D01*
X214691341Y-77076799D01*
X214811664Y-77052866D01*
X214925006Y-77005918D01*
X215027012Y-76937760D01*
X215113760Y-76851012D01*
X215181918Y-76749006D01*
X215228866Y-76635664D01*
X215252800Y-76515340D01*
X215252800Y-76392660D01*
X215228866Y-76272336D01*
X215181918Y-76158994D01*
X215113760Y-76056988D01*
X215027012Y-75970240D01*
X215027007Y-75970235D01*
X215011491Y-75932776D01*
X215027007Y-75895317D01*
X215064466Y-75879801D01*
X219908061Y-75879801D01*
X219945520Y-75895317D01*
X219961036Y-75932776D01*
X219960018Y-75943108D01*
X219950707Y-75989918D01*
X219929500Y-76096534D01*
X219929500Y-76303465D01*
X219967558Y-76494800D01*
X219969870Y-76506420D01*
X220008673Y-76600099D01*
X220049059Y-76697599D01*
X220164023Y-76869655D01*
X220310344Y-77015976D01*
X220482400Y-77130940D01*
X220482401Y-77130940D01*
X220482402Y-77130941D01*
X220673580Y-77210130D01*
X220808883Y-77237043D01*
X220876534Y-77250500D01*
X220876535Y-77250500D01*
X221083465Y-77250500D01*
X221286420Y-77210130D01*
X221477598Y-77130941D01*
X221649655Y-77015977D01*
X221795977Y-76869655D01*
X221910941Y-76697598D01*
X221990130Y-76506420D01*
X222030500Y-76303465D01*
X222030500Y-76096535D01*
X222022633Y-76056987D01*
X222012692Y-76007007D01*
X221990130Y-75893580D01*
X221910941Y-75702402D01*
X221910719Y-75702070D01*
X221835600Y-75589646D01*
X221795977Y-75530345D01*
X221649655Y-75384023D01*
X221627770Y-75369400D01*
X221477599Y-75269059D01*
X221424282Y-75246974D01*
X221286420Y-75189870D01*
X221286415Y-75189869D01*
X221286417Y-75189869D01*
X221083466Y-75149500D01*
X221083465Y-75149500D01*
X220876535Y-75149500D01*
X220876534Y-75149500D01*
X220775057Y-75169685D01*
X220673580Y-75189870D01*
X220673578Y-75189870D01*
X220673577Y-75189871D01*
X220663181Y-75194177D01*
X220652644Y-75194176D01*
X220642911Y-75198208D01*
X220633173Y-75194174D01*
X220622636Y-75194174D01*
X220605452Y-75182692D01*
X220572014Y-75149254D01*
X220572012Y-75149251D01*
X220484372Y-75061611D01*
X220484371Y-75061610D01*
X220440569Y-75036320D01*
X220380733Y-75001774D01*
X220368517Y-74998501D01*
X220356303Y-74995228D01*
X220356302Y-74995227D01*
X220265138Y-74970800D01*
X220265137Y-74970800D01*
X220145465Y-74970800D01*
X220142225Y-74970800D01*
X220142209Y-74970801D01*
X213693862Y-74970801D01*
X213578267Y-75001774D01*
X213474629Y-75061609D01*
X213474629Y-75061610D01*
X213390008Y-75146231D01*
X213390006Y-75146233D01*
X213353548Y-75182692D01*
X213326956Y-75209284D01*
X213289497Y-75224800D01*
X213281771Y-75224800D01*
X213130646Y-75265294D01*
X212995153Y-75343521D01*
X212884521Y-75454153D01*
X212806294Y-75589646D01*
X212776170Y-75702070D01*
X212751487Y-75734237D01*
X212711289Y-75739529D01*
X212679122Y-75714846D01*
X212673830Y-75702070D01*
X212651749Y-75619664D01*
X212643706Y-75589647D01*
X212565478Y-75454153D01*
X212454847Y-75343522D01*
X212454846Y-75343521D01*
X212319353Y-75265294D01*
X212168226Y-75224799D01*
X212164789Y-75224347D01*
X212165020Y-75222589D01*
X212132897Y-75209284D01*
X212117381Y-75171825D01*
X212117381Y-75152761D01*
X212092957Y-75061610D01*
X212079484Y-75011328D01*
X212006272Y-74884521D01*
X211902735Y-74780984D01*
X211902734Y-74780983D01*
X211847640Y-74749175D01*
X211804992Y-74724552D01*
X211780310Y-74692386D01*
X211785602Y-74652188D01*
X211817769Y-74627505D01*
X211831480Y-74625700D01*
X222501325Y-74625700D01*
X222538784Y-74641216D01*
X222554300Y-74678675D01*
X222554300Y-103121325D01*
X222538784Y-103158784D01*
X222501325Y-103174300D01*
X201678675Y-103174300D01*
X201641216Y-103158784D01*
X201625700Y-103121325D01*
X201625700Y-93876534D01*
X202149500Y-93876534D01*
X202149500Y-94083465D01*
X202184320Y-94258521D01*
X202189870Y-94286420D01*
X202202641Y-94317251D01*
X202269059Y-94477599D01*
X202384023Y-94649655D01*
X202530344Y-94795976D01*
X202702400Y-94910940D01*
X202702401Y-94910940D01*
X202702402Y-94910941D01*
X202893580Y-94990130D01*
X203028883Y-95017043D01*
X203096534Y-95030500D01*
X203096535Y-95030500D01*
X203303465Y-95030500D01*
X203506420Y-94990130D01*
X203697598Y-94910941D01*
X203869655Y-94795977D01*
X204015977Y-94649655D01*
X204130941Y-94477598D01*
X204210130Y-94286420D01*
X204250500Y-94083465D01*
X204250500Y-93876535D01*
X204210130Y-93673580D01*
X204166369Y-93567932D01*
X204166370Y-93527388D01*
X204177850Y-93510205D01*
X205265472Y-92422585D01*
X205292397Y-92375950D01*
X205324564Y-92351267D01*
X205364762Y-92356559D01*
X205389445Y-92388726D01*
X205391250Y-92402437D01*
X205391250Y-93798749D01*
X205375734Y-93836208D01*
X203669796Y-95542145D01*
X203632337Y-95557661D01*
X203612065Y-95553629D01*
X203557874Y-95531182D01*
X203506420Y-95509870D01*
X203506418Y-95509869D01*
X203506417Y-95509869D01*
X203303466Y-95469500D01*
X203303465Y-95469500D01*
X203096535Y-95469500D01*
X203096534Y-95469500D01*
X202893583Y-95509869D01*
X202893581Y-95509869D01*
X202893580Y-95509870D01*
X202850271Y-95527809D01*
X202702400Y-95589059D01*
X202530344Y-95704023D01*
X202384023Y-95850344D01*
X202269059Y-96022400D01*
X202189869Y-96213583D01*
X202149500Y-96416534D01*
X202149500Y-96416535D01*
X202149500Y-96623465D01*
X202189870Y-96826420D01*
X202238434Y-96943663D01*
X202269059Y-97017599D01*
X202384023Y-97189655D01*
X202530345Y-97335977D01*
X202606997Y-97387194D01*
X202702400Y-97450940D01*
X202702401Y-97450940D01*
X202702402Y-97450941D01*
X202893580Y-97530130D01*
X203028883Y-97557043D01*
X203096534Y-97570500D01*
X203096535Y-97570500D01*
X203303465Y-97570500D01*
X203506420Y-97530130D01*
X203697598Y-97450941D01*
X203869655Y-97335977D01*
X204015977Y-97189655D01*
X204130941Y-97017598D01*
X204210130Y-96826420D01*
X204250500Y-96623465D01*
X204250500Y-96416535D01*
X204210130Y-96213580D01*
X204166369Y-96107932D01*
X204166370Y-96067388D01*
X204177850Y-96050205D01*
X206037972Y-94190085D01*
X206043897Y-94179823D01*
X206076063Y-94155139D01*
X206116261Y-94160431D01*
X206140945Y-94192597D01*
X206142750Y-94206309D01*
X206142750Y-95587250D01*
X206127234Y-95624709D01*
X203669797Y-98082145D01*
X203632338Y-98097661D01*
X203612066Y-98093629D01*
X203506426Y-98049872D01*
X203506422Y-98049870D01*
X203506420Y-98049870D01*
X203404942Y-98029685D01*
X203303466Y-98009500D01*
X203303465Y-98009500D01*
X203096535Y-98009500D01*
X203096534Y-98009500D01*
X202893583Y-98049869D01*
X202893581Y-98049869D01*
X202893580Y-98049870D01*
X202850271Y-98067809D01*
X202702400Y-98129059D01*
X202530344Y-98244023D01*
X202384023Y-98390344D01*
X202269059Y-98562400D01*
X202189869Y-98753583D01*
X202149500Y-98956534D01*
X202149500Y-99163465D01*
X202175840Y-99295889D01*
X202189870Y-99366420D01*
X202238434Y-99483663D01*
X202269059Y-99557599D01*
X202384023Y-99729655D01*
X202530345Y-99875977D01*
X202615789Y-99933069D01*
X202702400Y-99990940D01*
X202702401Y-99990940D01*
X202702402Y-99990941D01*
X202893580Y-100070130D01*
X203028883Y-100097043D01*
X203096534Y-100110500D01*
X203096535Y-100110500D01*
X203303465Y-100110500D01*
X203506420Y-100070130D01*
X203697598Y-99990941D01*
X203869655Y-99875977D01*
X204015977Y-99729655D01*
X204130941Y-99557598D01*
X204210130Y-99366420D01*
X204250500Y-99163465D01*
X204250500Y-98956535D01*
X204210130Y-98753580D01*
X204166369Y-98647931D01*
X204166370Y-98607387D01*
X204177850Y-98590204D01*
X206722582Y-96045473D01*
X206722585Y-96045472D01*
X206789472Y-95978585D01*
X206805897Y-95950134D01*
X206838063Y-95925452D01*
X206878262Y-95930744D01*
X206902945Y-95962910D01*
X206904750Y-95976622D01*
X206904750Y-97365250D01*
X206889234Y-97402709D01*
X203669797Y-100622145D01*
X203632338Y-100637661D01*
X203612066Y-100633629D01*
X203506426Y-100589872D01*
X203506422Y-100589870D01*
X203506420Y-100589870D01*
X203404942Y-100569685D01*
X203303466Y-100549500D01*
X203303465Y-100549500D01*
X203096535Y-100549500D01*
X203096534Y-100549500D01*
X202893583Y-100589869D01*
X202893581Y-100589869D01*
X202893580Y-100589870D01*
X202850271Y-100607809D01*
X202702400Y-100669059D01*
X202530344Y-100784023D01*
X202384023Y-100930344D01*
X202269059Y-101102400D01*
X202255425Y-101135316D01*
X202190772Y-101291404D01*
X202189869Y-101293583D01*
X202150126Y-101493388D01*
X202149500Y-101496535D01*
X202149500Y-101703465D01*
X202189870Y-101906420D01*
X202238434Y-102023663D01*
X202269059Y-102097599D01*
X202384023Y-102269655D01*
X202530345Y-102415977D01*
X202563443Y-102438092D01*
X202702400Y-102530940D01*
X202702401Y-102530940D01*
X202702402Y-102530941D01*
X202893580Y-102610130D01*
X202987034Y-102628719D01*
X203096534Y-102650500D01*
X203096535Y-102650500D01*
X203303465Y-102650500D01*
X203506420Y-102610130D01*
X203697598Y-102530941D01*
X203869655Y-102415977D01*
X203917353Y-102368279D01*
X208379601Y-102368279D01*
X208379602Y-102368296D01*
X208389778Y-102453043D01*
X208389779Y-102453048D01*
X208442963Y-102587910D01*
X208442965Y-102587914D01*
X208530565Y-102703433D01*
X208530566Y-102703434D01*
X208646085Y-102791034D01*
X208646089Y-102791036D01*
X208780955Y-102844221D01*
X208780957Y-102844222D01*
X208865702Y-102854398D01*
X208865719Y-102854399D01*
X209091500Y-102854399D01*
X209472500Y-102854399D01*
X209698279Y-102854399D01*
X209698296Y-102854397D01*
X209783043Y-102844221D01*
X209783048Y-102844220D01*
X209917910Y-102791036D01*
X209917914Y-102791034D01*
X210033433Y-102703434D01*
X210033434Y-102703433D01*
X210121034Y-102587914D01*
X210121036Y-102587910D01*
X210174221Y-102453044D01*
X210174222Y-102453042D01*
X210184398Y-102368297D01*
X210184400Y-102368280D01*
X210184400Y-101892500D01*
X209472500Y-101892500D01*
X209472500Y-102854399D01*
X209091500Y-102854399D01*
X209091500Y-101892500D01*
X208379601Y-101892500D01*
X208379601Y-102368279D01*
X203917353Y-102368279D01*
X204015977Y-102269655D01*
X204130941Y-102097598D01*
X204210130Y-101906420D01*
X204250500Y-101703465D01*
X204250500Y-101496535D01*
X204241862Y-101453111D01*
X204226338Y-101375064D01*
X204210130Y-101293580D01*
X204166369Y-101187931D01*
X204166370Y-101147387D01*
X204177850Y-101130204D01*
X204272335Y-101035719D01*
X208379600Y-101035719D01*
X208379600Y-101511500D01*
X209091500Y-101511500D01*
X209472500Y-101511500D01*
X210184399Y-101511500D01*
X210184399Y-101035720D01*
X210184397Y-101035703D01*
X210174221Y-100950956D01*
X210174220Y-100950951D01*
X210121036Y-100816089D01*
X210121034Y-100816085D01*
X210033434Y-100700566D01*
X210033433Y-100700565D01*
X209917914Y-100612965D01*
X209917910Y-100612963D01*
X209783044Y-100559778D01*
X209783042Y-100559777D01*
X209698297Y-100549601D01*
X209698280Y-100549600D01*
X209472500Y-100549600D01*
X209472500Y-101511500D01*
X209091500Y-101511500D01*
X209091500Y-100549600D01*
X208865720Y-100549600D01*
X208865703Y-100549602D01*
X208780956Y-100559778D01*
X208780951Y-100559779D01*
X208646089Y-100612963D01*
X208646085Y-100612965D01*
X208530566Y-100700565D01*
X208530565Y-100700566D01*
X208442965Y-100816085D01*
X208442963Y-100816089D01*
X208389778Y-100950955D01*
X208389777Y-100950957D01*
X208379601Y-101035702D01*
X208379600Y-101035719D01*
X204272335Y-101035719D01*
X207484582Y-97823473D01*
X207484585Y-97823472D01*
X207551472Y-97756585D01*
X207581456Y-97704650D01*
X207598768Y-97674666D01*
X207623251Y-97583296D01*
X207623251Y-97488704D01*
X207623251Y-97485465D01*
X207623250Y-97485447D01*
X207623250Y-94845384D01*
X209481500Y-94845384D01*
X209481500Y-95958616D01*
X209483315Y-95978584D01*
X209487914Y-96029197D01*
X209538521Y-96191604D01*
X209538523Y-96191608D01*
X209626528Y-96337185D01*
X209746815Y-96457472D01*
X209892394Y-96545478D01*
X210054804Y-96596086D01*
X210125384Y-96602500D01*
X211011025Y-96602500D01*
X211048484Y-96618016D01*
X211064000Y-96655475D01*
X211064000Y-100477919D01*
X211048484Y-100515378D01*
X211031300Y-100526860D01*
X210976398Y-100549602D01*
X210916764Y-100574303D01*
X210796549Y-100666548D01*
X210796548Y-100666549D01*
X210704303Y-100786764D01*
X210646312Y-100926767D01*
X210631500Y-101039282D01*
X210631500Y-102364717D01*
X210645652Y-102472220D01*
X210646313Y-102477236D01*
X210692156Y-102587910D01*
X210704303Y-102617235D01*
X210796548Y-102737450D01*
X210796549Y-102737451D01*
X210916767Y-102829698D01*
X211056764Y-102887687D01*
X211169280Y-102902500D01*
X211169282Y-102902500D01*
X211994718Y-102902500D01*
X211994720Y-102902500D01*
X212107236Y-102887687D01*
X212247233Y-102829698D01*
X212367451Y-102737451D01*
X212459698Y-102617233D01*
X212517687Y-102477236D01*
X212532500Y-102364720D01*
X212532500Y-101039282D01*
X212931500Y-101039282D01*
X212931500Y-102364717D01*
X212945652Y-102472220D01*
X212946313Y-102477236D01*
X212992156Y-102587910D01*
X213004303Y-102617235D01*
X213096548Y-102737450D01*
X213096549Y-102737451D01*
X213216767Y-102829698D01*
X213356764Y-102887687D01*
X213469280Y-102902500D01*
X213469282Y-102902500D01*
X214294718Y-102902500D01*
X214294720Y-102902500D01*
X214407236Y-102887687D01*
X214547233Y-102829698D01*
X214667451Y-102737451D01*
X214759698Y-102617233D01*
X214789586Y-102545074D01*
X214818256Y-102516405D01*
X214852239Y-102514177D01*
X214898147Y-102526478D01*
X214937787Y-102537100D01*
X214937788Y-102537100D01*
X215084213Y-102537100D01*
X215114101Y-102529091D01*
X215225647Y-102499203D01*
X215308271Y-102451500D01*
X215323692Y-102442597D01*
X215350179Y-102435500D01*
X215377299Y-102435500D01*
X215414758Y-102451016D01*
X215424499Y-102464424D01*
X215428470Y-102472218D01*
X215428472Y-102472220D01*
X215523780Y-102567528D01*
X215643874Y-102628719D01*
X215743512Y-102644500D01*
X215743516Y-102644500D01*
X216310484Y-102644500D01*
X216310488Y-102644500D01*
X216410126Y-102628719D01*
X216530220Y-102567528D01*
X216625528Y-102472220D01*
X216625635Y-102472008D01*
X216629501Y-102464424D01*
X216660332Y-102438092D01*
X216676701Y-102435500D01*
X217118565Y-102435500D01*
X217140950Y-102440462D01*
X217150827Y-102445068D01*
X217199684Y-102451500D01*
X217199686Y-102451500D01*
X217648314Y-102451500D01*
X217648316Y-102451500D01*
X217697173Y-102445068D01*
X217804404Y-102395065D01*
X217888065Y-102311404D01*
X217938068Y-102204173D01*
X217944500Y-102155316D01*
X217944500Y-101806684D01*
X217938068Y-101757827D01*
X217888065Y-101650596D01*
X217804404Y-101566935D01*
X217701630Y-101519010D01*
X217681035Y-101496535D01*
X219929500Y-101496535D01*
X219929500Y-101703465D01*
X219969870Y-101906420D01*
X220018434Y-102023663D01*
X220049059Y-102097599D01*
X220164023Y-102269655D01*
X220310345Y-102415977D01*
X220343443Y-102438092D01*
X220482400Y-102530940D01*
X220482401Y-102530940D01*
X220482402Y-102530941D01*
X220673580Y-102610130D01*
X220767034Y-102628719D01*
X220876534Y-102650500D01*
X220876535Y-102650500D01*
X221083465Y-102650500D01*
X221286420Y-102610130D01*
X221477598Y-102530941D01*
X221649655Y-102415977D01*
X221795977Y-102269655D01*
X221910941Y-102097598D01*
X221990130Y-101906420D01*
X222030500Y-101703465D01*
X222030500Y-101496535D01*
X222021862Y-101453111D01*
X222006338Y-101375064D01*
X221990130Y-101293580D01*
X221910941Y-101102402D01*
X221866380Y-101035712D01*
X221809749Y-100950957D01*
X221795977Y-100930345D01*
X221649655Y-100784023D01*
X221640898Y-100778172D01*
X221477599Y-100669059D01*
X221401797Y-100637661D01*
X221286420Y-100589870D01*
X221286415Y-100589869D01*
X221286417Y-100589869D01*
X221083466Y-100549500D01*
X221083465Y-100549500D01*
X220876535Y-100549500D01*
X220876534Y-100549500D01*
X220673583Y-100589869D01*
X220673581Y-100589869D01*
X220673580Y-100589870D01*
X220630271Y-100607809D01*
X220482400Y-100669059D01*
X220310344Y-100784023D01*
X220164023Y-100930344D01*
X220049059Y-101102400D01*
X220035425Y-101135316D01*
X219970772Y-101291404D01*
X219969869Y-101293583D01*
X219930126Y-101493388D01*
X219929500Y-101496535D01*
X217681035Y-101496535D01*
X217674240Y-101489119D01*
X217676008Y-101448612D01*
X217701630Y-101422989D01*
X217804404Y-101375065D01*
X217888065Y-101291404D01*
X217938068Y-101184173D01*
X217944500Y-101135316D01*
X217944500Y-100786684D01*
X217938068Y-100737827D01*
X217888065Y-100630596D01*
X217830516Y-100573047D01*
X217815000Y-100535588D01*
X217815000Y-99401842D01*
X217830516Y-99364383D01*
X217859686Y-99349520D01*
X217926420Y-99338951D01*
X218044751Y-99278658D01*
X218138658Y-99184751D01*
X218198951Y-99066420D01*
X218214500Y-98968246D01*
X218214500Y-98389754D01*
X218198951Y-98291580D01*
X218138658Y-98173249D01*
X218044751Y-98079342D01*
X217926419Y-98019048D01*
X217866129Y-98009500D01*
X217828246Y-98003500D01*
X217324754Y-98003500D01*
X217286871Y-98009500D01*
X217226580Y-98019048D01*
X217108248Y-98079342D01*
X217014342Y-98173248D01*
X216954048Y-98291580D01*
X216943508Y-98358134D01*
X216938500Y-98389754D01*
X216938500Y-98968246D01*
X216945177Y-99010405D01*
X216954048Y-99066419D01*
X217014342Y-99184751D01*
X217017484Y-99187893D01*
X217033000Y-99225352D01*
X217033000Y-100535588D01*
X217017484Y-100573047D01*
X216959935Y-100630595D01*
X216909931Y-100737829D01*
X216905193Y-100773822D01*
X216903851Y-100784023D01*
X216903500Y-100786686D01*
X216903500Y-101135313D01*
X216909931Y-101184170D01*
X216909931Y-101184171D01*
X216909932Y-101184173D01*
X216959935Y-101291404D01*
X217043596Y-101375065D01*
X217146369Y-101422989D01*
X217158620Y-101436359D01*
X217171992Y-101448612D01*
X217172099Y-101451068D01*
X217173760Y-101452881D01*
X217172969Y-101471000D01*
X217173760Y-101489119D01*
X217172099Y-101490931D01*
X217171992Y-101493388D01*
X217146369Y-101519010D01*
X217140950Y-101521537D01*
X217118565Y-101526500D01*
X216658191Y-101526500D01*
X216620732Y-101510984D01*
X216530220Y-101420472D01*
X216410125Y-101359280D01*
X216353276Y-101350277D01*
X216310488Y-101343500D01*
X215743512Y-101343500D01*
X215704871Y-101349619D01*
X215643874Y-101359280D01*
X215523779Y-101420472D01*
X215433268Y-101510984D01*
X215395809Y-101526500D01*
X215350179Y-101526500D01*
X215323692Y-101519403D01*
X215225647Y-101462797D01*
X215084213Y-101424900D01*
X215084212Y-101424900D01*
X214937788Y-101424900D01*
X214937786Y-101424900D01*
X214899185Y-101435242D01*
X214858986Y-101429949D01*
X214834305Y-101397782D01*
X214832500Y-101384072D01*
X214832500Y-101039282D01*
X214820872Y-100950956D01*
X214817687Y-100926764D01*
X214759698Y-100786767D01*
X214759634Y-100786684D01*
X214696811Y-100704812D01*
X215399601Y-100704812D01*
X215410287Y-100778172D01*
X215410287Y-100778174D01*
X215465607Y-100891329D01*
X215465608Y-100891331D01*
X215554668Y-100980391D01*
X215554670Y-100980392D01*
X215667822Y-101035710D01*
X215741188Y-101046399D01*
X215836500Y-101046399D01*
X216217500Y-101046399D01*
X216312813Y-101046399D01*
X216386172Y-101035712D01*
X216386174Y-101035712D01*
X216499329Y-100980392D01*
X216499331Y-100980391D01*
X216588391Y-100891331D01*
X216588392Y-100891329D01*
X216643710Y-100778177D01*
X216654399Y-100704814D01*
X216654400Y-100704810D01*
X216654400Y-100634500D01*
X216217500Y-100634500D01*
X216217500Y-101046399D01*
X215836500Y-101046399D01*
X215836500Y-100634500D01*
X215399601Y-100634500D01*
X215399601Y-100704812D01*
X214696811Y-100704812D01*
X214667451Y-100666549D01*
X214651859Y-100654585D01*
X214547235Y-100574303D01*
X214544203Y-100573047D01*
X214407236Y-100516313D01*
X214407233Y-100516312D01*
X214407232Y-100516312D01*
X214334932Y-100506794D01*
X214294720Y-100501500D01*
X213469280Y-100501500D01*
X213435164Y-100505991D01*
X213356767Y-100516312D01*
X213356764Y-100516312D01*
X213356764Y-100516313D01*
X213286765Y-100545307D01*
X213216764Y-100574303D01*
X213096549Y-100666548D01*
X213096548Y-100666549D01*
X213004303Y-100786764D01*
X212946312Y-100926767D01*
X212931500Y-101039282D01*
X212532500Y-101039282D01*
X212532500Y-101039280D01*
X212517687Y-100926764D01*
X212459698Y-100786767D01*
X212459634Y-100786684D01*
X212367451Y-100666549D01*
X212367450Y-100666548D01*
X212247235Y-100574303D01*
X212244203Y-100573047D01*
X212132701Y-100526861D01*
X212104032Y-100498192D01*
X212100000Y-100477919D01*
X212100000Y-100183185D01*
X215399600Y-100183185D01*
X215399600Y-100253500D01*
X215836500Y-100253500D01*
X216217500Y-100253500D01*
X216654399Y-100253500D01*
X216654399Y-100183187D01*
X216643712Y-100109827D01*
X216643712Y-100109825D01*
X216588392Y-99996670D01*
X216588391Y-99996668D01*
X216499331Y-99907608D01*
X216499329Y-99907607D01*
X216386177Y-99852289D01*
X216312814Y-99841600D01*
X216217500Y-99841600D01*
X216217500Y-100253500D01*
X215836500Y-100253500D01*
X215836500Y-99841600D01*
X215741187Y-99841600D01*
X215667827Y-99852287D01*
X215667825Y-99852287D01*
X215554670Y-99907607D01*
X215554668Y-99907608D01*
X215465608Y-99996668D01*
X215465607Y-99996670D01*
X215410289Y-100109822D01*
X215399600Y-100183185D01*
X212100000Y-100183185D01*
X212100000Y-98970469D01*
X215411600Y-98970469D01*
X215411601Y-98970487D01*
X215422110Y-99042613D01*
X215422112Y-99042619D01*
X215476511Y-99153896D01*
X215476514Y-99153900D01*
X215564099Y-99241485D01*
X215564103Y-99241488D01*
X215675380Y-99295887D01*
X215675386Y-99295889D01*
X215747512Y-99306398D01*
X215747531Y-99306400D01*
X215811000Y-99306400D01*
X216192000Y-99306400D01*
X216255469Y-99306400D01*
X216255487Y-99306398D01*
X216327613Y-99295889D01*
X216327619Y-99295887D01*
X216438896Y-99241488D01*
X216438900Y-99241485D01*
X216526485Y-99153900D01*
X216526488Y-99153896D01*
X216580887Y-99042619D01*
X216580889Y-99042613D01*
X216591398Y-98970487D01*
X216591400Y-98970469D01*
X216591400Y-98869500D01*
X216192000Y-98869500D01*
X216192000Y-99306400D01*
X215811000Y-99306400D01*
X215811000Y-98869500D01*
X215411600Y-98869500D01*
X215411600Y-98970469D01*
X212100000Y-98970469D01*
X212100000Y-98387530D01*
X215411600Y-98387530D01*
X215411600Y-98488500D01*
X215811000Y-98488500D01*
X216192000Y-98488500D01*
X216591400Y-98488500D01*
X216591400Y-98387530D01*
X216591398Y-98387512D01*
X216580889Y-98315386D01*
X216580887Y-98315380D01*
X216526488Y-98204103D01*
X216526485Y-98204099D01*
X216438900Y-98116514D01*
X216438896Y-98116511D01*
X216327619Y-98062112D01*
X216327613Y-98062110D01*
X216255487Y-98051601D01*
X216255469Y-98051600D01*
X216192000Y-98051600D01*
X216192000Y-98488500D01*
X215811000Y-98488500D01*
X215811000Y-98051600D01*
X215747531Y-98051600D01*
X215747512Y-98051601D01*
X215675386Y-98062110D01*
X215675380Y-98062112D01*
X215564103Y-98116511D01*
X215564099Y-98116514D01*
X215476514Y-98204099D01*
X215476511Y-98204103D01*
X215422112Y-98315380D01*
X215422110Y-98315386D01*
X215411601Y-98387512D01*
X215411600Y-98387530D01*
X212100000Y-98387530D01*
X212100000Y-96655475D01*
X212115516Y-96618016D01*
X212152975Y-96602500D01*
X213038609Y-96602500D01*
X213038616Y-96602500D01*
X213109196Y-96596086D01*
X213271606Y-96545478D01*
X213417185Y-96457472D01*
X213537472Y-96337185D01*
X213625478Y-96191606D01*
X213676086Y-96029196D01*
X213682500Y-95958616D01*
X213682500Y-94845384D01*
X213676086Y-94774804D01*
X213625478Y-94612394D01*
X213537472Y-94466815D01*
X213417185Y-94346528D01*
X213271606Y-94258522D01*
X213271604Y-94258521D01*
X213109197Y-94207914D01*
X213100373Y-94207112D01*
X213038616Y-94201500D01*
X213038609Y-94201500D01*
X212152975Y-94201500D01*
X212115516Y-94185984D01*
X212100000Y-94148525D01*
X212100000Y-93912691D01*
X212115516Y-93875232D01*
X212155528Y-93835220D01*
X212216719Y-93715126D01*
X212232132Y-93617812D01*
X212529601Y-93617812D01*
X212540287Y-93691172D01*
X212540287Y-93691174D01*
X212595607Y-93804329D01*
X212595608Y-93804331D01*
X212684668Y-93893391D01*
X212684670Y-93893392D01*
X212797822Y-93948710D01*
X212871188Y-93959399D01*
X212941500Y-93959399D01*
X213322500Y-93959399D01*
X213392813Y-93959399D01*
X213466172Y-93948712D01*
X213466174Y-93948712D01*
X213579329Y-93893392D01*
X213579331Y-93893391D01*
X213668391Y-93804331D01*
X213668392Y-93804329D01*
X213723710Y-93691177D01*
X213734399Y-93617814D01*
X213734400Y-93617810D01*
X213734400Y-93522500D01*
X213322500Y-93522500D01*
X213322500Y-93959399D01*
X212941500Y-93959399D01*
X212941500Y-93522500D01*
X212529601Y-93522500D01*
X212529601Y-93617812D01*
X212232132Y-93617812D01*
X212232500Y-93615488D01*
X212232500Y-93048512D01*
X212232131Y-93046185D01*
X212529600Y-93046185D01*
X212529600Y-93141500D01*
X212941500Y-93141500D01*
X213322500Y-93141500D01*
X213734399Y-93141500D01*
X213734399Y-93046187D01*
X213723712Y-92972827D01*
X213723712Y-92972825D01*
X213668392Y-92859670D01*
X213668391Y-92859668D01*
X213579331Y-92770608D01*
X213579329Y-92770607D01*
X213466177Y-92715289D01*
X213392814Y-92704600D01*
X213322500Y-92704600D01*
X213322500Y-93141500D01*
X212941500Y-93141500D01*
X212941500Y-92704600D01*
X212871187Y-92704600D01*
X212797827Y-92715287D01*
X212797825Y-92715287D01*
X212684670Y-92770607D01*
X212684668Y-92770608D01*
X212595608Y-92859668D01*
X212595607Y-92859670D01*
X212540289Y-92972822D01*
X212529600Y-93046185D01*
X212232131Y-93046185D01*
X212216719Y-92948874D01*
X212155528Y-92828780D01*
X212060220Y-92733472D01*
X212003556Y-92704600D01*
X211940125Y-92672280D01*
X211904508Y-92666639D01*
X211875337Y-92651775D01*
X210983525Y-91759963D01*
X210983523Y-91759960D01*
X210884061Y-91660498D01*
X210884060Y-91660497D01*
X210831253Y-91630009D01*
X210765942Y-91592301D01*
X210677883Y-91568705D01*
X210665110Y-91563414D01*
X210653648Y-91556797D01*
X210512213Y-91518900D01*
X210512212Y-91518900D01*
X210365788Y-91518900D01*
X210365787Y-91518900D01*
X210224352Y-91556797D01*
X210097546Y-91630008D01*
X210097546Y-91630009D01*
X209994009Y-91733546D01*
X209994008Y-91733546D01*
X209920797Y-91860352D01*
X209882900Y-92001786D01*
X209882900Y-92148213D01*
X209920797Y-92289647D01*
X209959428Y-92356559D01*
X209994009Y-92416454D01*
X210097546Y-92519991D01*
X210224353Y-92593203D01*
X210327890Y-92620945D01*
X210365787Y-92631100D01*
X210365788Y-92631100D01*
X210367595Y-92631100D01*
X210368437Y-92631449D01*
X210369227Y-92631553D01*
X210369199Y-92631764D01*
X210405054Y-92646616D01*
X210915984Y-93157546D01*
X210931500Y-93195005D01*
X210931500Y-93615488D01*
X210938277Y-93658276D01*
X210947280Y-93715125D01*
X211008472Y-93835220D01*
X211048484Y-93875232D01*
X211064000Y-93912691D01*
X211064000Y-94148525D01*
X211048484Y-94185984D01*
X211011025Y-94201500D01*
X210125384Y-94201500D01*
X210072466Y-94206309D01*
X210054802Y-94207914D01*
X209892395Y-94258521D01*
X209892391Y-94258523D01*
X209746814Y-94346528D01*
X209626528Y-94466814D01*
X209538523Y-94612391D01*
X209538521Y-94612395D01*
X209487914Y-94774802D01*
X209487914Y-94774804D01*
X209481500Y-94845384D01*
X207623250Y-94845384D01*
X207623250Y-91630500D01*
X208580394Y-91630500D01*
X208582435Y-91648104D01*
X208626592Y-91748107D01*
X208626594Y-91748110D01*
X208703890Y-91825406D01*
X208703892Y-91825407D01*
X208803894Y-91869564D01*
X208828343Y-91872399D01*
X209232500Y-91872399D01*
X209255663Y-91872399D01*
X209280103Y-91869564D01*
X209280107Y-91869563D01*
X209380107Y-91825407D01*
X209380110Y-91825406D01*
X209457406Y-91748110D01*
X209457407Y-91748107D01*
X209501564Y-91648104D01*
X209503606Y-91630500D01*
X209232500Y-91630500D01*
X209232500Y-91872399D01*
X208828343Y-91872399D01*
X208851500Y-91872398D01*
X208851500Y-91630500D01*
X208580394Y-91630500D01*
X207623250Y-91630500D01*
X207623250Y-89842786D01*
X207977900Y-89842786D01*
X207977900Y-89842788D01*
X207977900Y-89989212D01*
X208015797Y-90130647D01*
X208089009Y-90257454D01*
X208192546Y-90360991D01*
X208319353Y-90434203D01*
X208410032Y-90458500D01*
X208460787Y-90472100D01*
X208460788Y-90472100D01*
X208471025Y-90472100D01*
X208486848Y-90478654D01*
X208503379Y-90483128D01*
X208504844Y-90486108D01*
X208508484Y-90487616D01*
X208523564Y-90518291D01*
X208524000Y-90521667D01*
X208524000Y-90548196D01*
X208530611Y-90572872D01*
X208531064Y-90576378D01*
X208530756Y-90577514D01*
X208531500Y-90583161D01*
X208531500Y-90659897D01*
X208538027Y-90709485D01*
X208538028Y-90709487D01*
X208588776Y-90818316D01*
X208673684Y-90903224D01*
X208749325Y-90938496D01*
X208776716Y-90968388D01*
X208774948Y-91008895D01*
X208748335Y-91034968D01*
X208703891Y-91054593D01*
X208626592Y-91131892D01*
X208582435Y-91231895D01*
X208580393Y-91249499D01*
X208580394Y-91249500D01*
X209503606Y-91249500D01*
X209503606Y-91249499D01*
X209501564Y-91231895D01*
X209457407Y-91131892D01*
X209457406Y-91131890D01*
X209380110Y-91054594D01*
X209380108Y-91054593D01*
X209335665Y-91034968D01*
X209307666Y-91005643D01*
X209308603Y-90965108D01*
X209334674Y-90938496D01*
X209410316Y-90903224D01*
X209495224Y-90818316D01*
X209545972Y-90709487D01*
X209552500Y-90659901D01*
X209552499Y-90583161D01*
X209554304Y-90569450D01*
X209560000Y-90548196D01*
X209560000Y-90359975D01*
X209575516Y-90322516D01*
X209612975Y-90307000D01*
X209703628Y-90307000D01*
X209741087Y-90322516D01*
X209747625Y-90332298D01*
X209748234Y-90331892D01*
X209751132Y-90336230D01*
X209751133Y-90336231D01*
X209795448Y-90402552D01*
X209861769Y-90446867D01*
X209910548Y-90456569D01*
X209920251Y-90458500D01*
X209920252Y-90458500D01*
X210859748Y-90458500D01*
X210918231Y-90446867D01*
X210984552Y-90402552D01*
X211028867Y-90336231D01*
X211040500Y-90277748D01*
X211040500Y-90273012D01*
X213187600Y-90273012D01*
X213196442Y-90317465D01*
X213196443Y-90317468D01*
X213230123Y-90367871D01*
X213230128Y-90367876D01*
X213280531Y-90401556D01*
X213280534Y-90401557D01*
X213324987Y-90410400D01*
X213599500Y-90410400D01*
X213980500Y-90410400D01*
X214255012Y-90410400D01*
X214299465Y-90401557D01*
X214299468Y-90401556D01*
X214349871Y-90367876D01*
X214349876Y-90367871D01*
X214383556Y-90317468D01*
X214383557Y-90317465D01*
X214392400Y-90273012D01*
X214392400Y-89598500D01*
X213980500Y-89598500D01*
X213980500Y-90410400D01*
X213599500Y-90410400D01*
X213599500Y-89598500D01*
X213187600Y-89598500D01*
X213187600Y-90273012D01*
X211040500Y-90273012D01*
X211040500Y-89338551D01*
X211562500Y-89338551D01*
X211562500Y-89477448D01*
X211598448Y-89611607D01*
X211667147Y-89730599D01*
X211667895Y-89731893D01*
X211766107Y-89830105D01*
X211886393Y-89899552D01*
X211984604Y-89925867D01*
X212020552Y-89935500D01*
X212020553Y-89935500D01*
X212159448Y-89935500D01*
X212187799Y-89927903D01*
X212293607Y-89899552D01*
X212413893Y-89830105D01*
X212512105Y-89731893D01*
X212581552Y-89611607D01*
X212617500Y-89477447D01*
X212617500Y-89338553D01*
X212617500Y-89338551D01*
X212602306Y-89281848D01*
X212581552Y-89204393D01*
X212512105Y-89084107D01*
X212413893Y-88985895D01*
X212413892Y-88985894D01*
X212293607Y-88916448D01*
X212159448Y-88880500D01*
X212159447Y-88880500D01*
X212020553Y-88880500D01*
X212020552Y-88880500D01*
X211886392Y-88916448D01*
X211766107Y-88985894D01*
X211766107Y-88985895D01*
X211667895Y-89084107D01*
X211667894Y-89084107D01*
X211598448Y-89204392D01*
X211562500Y-89338551D01*
X211040500Y-89338551D01*
X211040500Y-88542987D01*
X213187600Y-88542987D01*
X213187600Y-89217500D01*
X213599500Y-89217500D01*
X213980500Y-89217500D01*
X214392400Y-89217500D01*
X214392400Y-88542987D01*
X214383557Y-88498534D01*
X214383556Y-88498531D01*
X214349876Y-88448128D01*
X214349871Y-88448123D01*
X214299468Y-88414443D01*
X214299465Y-88414442D01*
X214255013Y-88405600D01*
X213980500Y-88405600D01*
X213980500Y-89217500D01*
X213599500Y-89217500D01*
X213599500Y-88405600D01*
X213324987Y-88405600D01*
X213280534Y-88414442D01*
X213280531Y-88414443D01*
X213230128Y-88448123D01*
X213230123Y-88448128D01*
X213196443Y-88498531D01*
X213196442Y-88498534D01*
X213187600Y-88542987D01*
X211040500Y-88542987D01*
X211040500Y-88538252D01*
X211028867Y-88479769D01*
X210984552Y-88413448D01*
X210918231Y-88369133D01*
X210888989Y-88363316D01*
X210859749Y-88357500D01*
X210859748Y-88357500D01*
X209920252Y-88357500D01*
X209920251Y-88357500D01*
X209861460Y-88369194D01*
X209821693Y-88361284D01*
X209799168Y-88327572D01*
X209807078Y-88287805D01*
X209813661Y-88279783D01*
X209867991Y-88225454D01*
X209941203Y-88098647D01*
X209979100Y-87957212D01*
X209979100Y-87810788D01*
X209979100Y-87810786D01*
X209952300Y-87710768D01*
X209941203Y-87669353D01*
X209867991Y-87542546D01*
X209764454Y-87439009D01*
X209764453Y-87439008D01*
X209637647Y-87365797D01*
X209496213Y-87327900D01*
X209496212Y-87327900D01*
X209349788Y-87327900D01*
X209349787Y-87327900D01*
X209208352Y-87365797D01*
X209081546Y-87439008D01*
X209081546Y-87439009D01*
X208978009Y-87542546D01*
X208978008Y-87542546D01*
X208904797Y-87669352D01*
X208866900Y-87810786D01*
X208866900Y-87865199D01*
X208866898Y-87865202D01*
X208866900Y-87865206D01*
X208861512Y-87878208D01*
X208851384Y-87902658D01*
X208851379Y-87902663D01*
X208847505Y-87906536D01*
X208816966Y-87921594D01*
X208768829Y-87927931D01*
X208661595Y-87977935D01*
X208577935Y-88061595D01*
X208527931Y-88168829D01*
X208521500Y-88217686D01*
X208521500Y-88566313D01*
X208527931Y-88615170D01*
X208527931Y-88615171D01*
X208527932Y-88615173D01*
X208577935Y-88722404D01*
X208661596Y-88806065D01*
X208764367Y-88853988D01*
X208791759Y-88883882D01*
X208789991Y-88924388D01*
X208764367Y-88950011D01*
X208728244Y-88966855D01*
X208661595Y-88997935D01*
X208577935Y-89081595D01*
X208527931Y-89188829D01*
X208521500Y-89237686D01*
X208521500Y-89306925D01*
X208505984Y-89344384D01*
X208468525Y-89359900D01*
X208460787Y-89359900D01*
X208319352Y-89397797D01*
X208192546Y-89471008D01*
X208192546Y-89471009D01*
X208089009Y-89574546D01*
X208089008Y-89574546D01*
X208015797Y-89701352D01*
X207977900Y-89842786D01*
X207623250Y-89842786D01*
X207623250Y-88054748D01*
X207638765Y-88017290D01*
X208496035Y-87160019D01*
X208533493Y-87144504D01*
X208539585Y-87144856D01*
X208545135Y-87145500D01*
X209909864Y-87145499D01*
X209909868Y-87145499D01*
X209926615Y-87143556D01*
X209934991Y-87142585D01*
X210037765Y-87097206D01*
X210117206Y-87017765D01*
X210162585Y-86914991D01*
X210165500Y-86889865D01*
X210165499Y-86600136D01*
X210165499Y-86600135D01*
X210165499Y-86600131D01*
X210162585Y-86575010D01*
X210162585Y-86575009D01*
X210117206Y-86472235D01*
X210102430Y-86457459D01*
X210086914Y-86420000D01*
X210102430Y-86382541D01*
X210117204Y-86367767D01*
X210117206Y-86367765D01*
X210162585Y-86264991D01*
X210165500Y-86239865D01*
X210165499Y-85950136D01*
X210165499Y-85950135D01*
X210165499Y-85950131D01*
X210162585Y-85925010D01*
X210162585Y-85925009D01*
X210117206Y-85822235D01*
X210102430Y-85807459D01*
X210086914Y-85770000D01*
X210102430Y-85732541D01*
X210117204Y-85717767D01*
X210117206Y-85717765D01*
X210162585Y-85614991D01*
X210165500Y-85589865D01*
X210165499Y-85300136D01*
X210165499Y-85300135D01*
X210165499Y-85300131D01*
X210162585Y-85275010D01*
X210162585Y-85275009D01*
X210117206Y-85172235D01*
X210102430Y-85157459D01*
X210086914Y-85120000D01*
X210102430Y-85082541D01*
X210117204Y-85067767D01*
X210117206Y-85067765D01*
X210162585Y-84964991D01*
X210165500Y-84939865D01*
X210165499Y-84650136D01*
X210165499Y-84650135D01*
X210165499Y-84650131D01*
X210162585Y-84625010D01*
X210162585Y-84625009D01*
X210117206Y-84522235D01*
X210102430Y-84507459D01*
X210086914Y-84470000D01*
X210102430Y-84432541D01*
X210117204Y-84417767D01*
X210117206Y-84417765D01*
X210162585Y-84314991D01*
X210165500Y-84289865D01*
X210165499Y-84000136D01*
X210165499Y-84000135D01*
X210165499Y-84000131D01*
X210162585Y-83975010D01*
X210162585Y-83975009D01*
X210117206Y-83872235D01*
X210067686Y-83822715D01*
X210052170Y-83785256D01*
X210061098Y-83755824D01*
X210102756Y-83693480D01*
X210102756Y-83693479D01*
X210104344Y-83685500D01*
X208337531Y-83685500D01*
X208325151Y-83692117D01*
X208286352Y-83680346D01*
X208282501Y-83676856D01*
X208241303Y-83635658D01*
X208114497Y-83562447D01*
X207973063Y-83524550D01*
X207973062Y-83524550D01*
X207826638Y-83524550D01*
X207826637Y-83524550D01*
X207685202Y-83562447D01*
X207558396Y-83635658D01*
X207558396Y-83635659D01*
X207454859Y-83739196D01*
X207454858Y-83739196D01*
X207381647Y-83866002D01*
X207343750Y-84007436D01*
X207343750Y-84153863D01*
X207380191Y-84289865D01*
X207381647Y-84295297D01*
X207436250Y-84389872D01*
X207441542Y-84430070D01*
X207416860Y-84462236D01*
X207390350Y-84477542D01*
X207338417Y-84507526D01*
X207338413Y-84507529D01*
X204690529Y-87155413D01*
X204678657Y-87175977D01*
X204643232Y-87237333D01*
X204618749Y-87328703D01*
X204618749Y-87427559D01*
X204618750Y-87427572D01*
X204618750Y-92031249D01*
X204603234Y-92068708D01*
X203669796Y-93002145D01*
X203632337Y-93017661D01*
X203612065Y-93013629D01*
X203557874Y-92991182D01*
X203506420Y-92969870D01*
X203506418Y-92969869D01*
X203506417Y-92969869D01*
X203303466Y-92929500D01*
X203303465Y-92929500D01*
X203096535Y-92929500D01*
X203096534Y-92929500D01*
X202893583Y-92969869D01*
X202893581Y-92969869D01*
X202893580Y-92969870D01*
X202850271Y-92987809D01*
X202702400Y-93049059D01*
X202530344Y-93164023D01*
X202384023Y-93310344D01*
X202269059Y-93482400D01*
X202189869Y-93673583D01*
X202149500Y-93876534D01*
X201625700Y-93876534D01*
X201625700Y-91336534D01*
X202149500Y-91336534D01*
X202149500Y-91543465D01*
X202166714Y-91630009D01*
X202189870Y-91746420D01*
X202203781Y-91780003D01*
X202269059Y-91937599D01*
X202384023Y-92109655D01*
X202530344Y-92255976D01*
X202702400Y-92370940D01*
X202702401Y-92370940D01*
X202702402Y-92370941D01*
X202893580Y-92450130D01*
X203028883Y-92477043D01*
X203096534Y-92490500D01*
X203096535Y-92490500D01*
X203303465Y-92490500D01*
X203506420Y-92450130D01*
X203697598Y-92370941D01*
X203869655Y-92255977D01*
X204015977Y-92109655D01*
X204130941Y-91937598D01*
X204210130Y-91746420D01*
X204250500Y-91543465D01*
X204250500Y-91336535D01*
X204210130Y-91133580D01*
X204130941Y-90942402D01*
X204128330Y-90938495D01*
X204015976Y-90770344D01*
X203869655Y-90624023D01*
X203697599Y-90509059D01*
X203624194Y-90478654D01*
X203506420Y-90429870D01*
X203506415Y-90429869D01*
X203506417Y-90429869D01*
X203303466Y-90389500D01*
X203303465Y-90389500D01*
X203096535Y-90389500D01*
X203096534Y-90389500D01*
X202893583Y-90429869D01*
X202893581Y-90429869D01*
X202893580Y-90429870D01*
X202852548Y-90446866D01*
X202702400Y-90509059D01*
X202530344Y-90624023D01*
X202384023Y-90770344D01*
X202269059Y-90942400D01*
X202189869Y-91133583D01*
X202149500Y-91336534D01*
X201625700Y-91336534D01*
X201625700Y-88801270D01*
X202197600Y-88801270D01*
X202197600Y-88998729D01*
X202236121Y-89192386D01*
X202236122Y-89192388D01*
X202311684Y-89374813D01*
X202369400Y-89461191D01*
X202735364Y-89095226D01*
X202799901Y-89207007D01*
X202892993Y-89300099D01*
X203004771Y-89364634D01*
X202638807Y-89730598D01*
X202638807Y-89730599D01*
X202725186Y-89788315D01*
X202907611Y-89863877D01*
X202907613Y-89863878D01*
X203101270Y-89902400D01*
X203298729Y-89902400D01*
X203492386Y-89863878D01*
X203492388Y-89863877D01*
X203674813Y-89788315D01*
X203761191Y-89730599D01*
X203761191Y-89730598D01*
X203395227Y-89364634D01*
X203507007Y-89300099D01*
X203600099Y-89207007D01*
X203664634Y-89095227D01*
X204030598Y-89461191D01*
X204030599Y-89461191D01*
X204088315Y-89374813D01*
X204163877Y-89192388D01*
X204163878Y-89192386D01*
X204202400Y-88998729D01*
X204202400Y-88801270D01*
X204163878Y-88607613D01*
X204163877Y-88607611D01*
X204088315Y-88425186D01*
X204030599Y-88338807D01*
X204030598Y-88338807D01*
X203664634Y-88704771D01*
X203600099Y-88592993D01*
X203507007Y-88499901D01*
X203395226Y-88435364D01*
X203761191Y-88069400D01*
X203761191Y-88069399D01*
X203674813Y-88011684D01*
X203492388Y-87936122D01*
X203492386Y-87936121D01*
X203298730Y-87897600D01*
X203101270Y-87897600D01*
X202907613Y-87936121D01*
X202907611Y-87936122D01*
X202725190Y-88011683D01*
X202638807Y-88069400D01*
X203004772Y-88435365D01*
X202892993Y-88499901D01*
X202799901Y-88592993D01*
X202735365Y-88704772D01*
X202369400Y-88338807D01*
X202311683Y-88425190D01*
X202236122Y-88607611D01*
X202236121Y-88607613D01*
X202197600Y-88801270D01*
X201625700Y-88801270D01*
X201625700Y-78636535D01*
X202149500Y-78636535D01*
X202149500Y-78843465D01*
X202189870Y-79046420D01*
X202211753Y-79099250D01*
X202269059Y-79237599D01*
X202384023Y-79409655D01*
X202530344Y-79555976D01*
X202702400Y-79670940D01*
X202702401Y-79670940D01*
X202702402Y-79670941D01*
X202893580Y-79750130D01*
X203028883Y-79777043D01*
X203096534Y-79790500D01*
X203096535Y-79790500D01*
X203303465Y-79790500D01*
X203506420Y-79750130D01*
X203697598Y-79670941D01*
X203869655Y-79555977D01*
X204015977Y-79409655D01*
X204130941Y-79237598D01*
X204174701Y-79131951D01*
X204203370Y-79103283D01*
X204223643Y-79099250D01*
X206077251Y-79099250D01*
X206114710Y-79114766D01*
X208095260Y-81095316D01*
X208110776Y-81132775D01*
X208095260Y-81170234D01*
X208057801Y-81185750D01*
X204295808Y-81185750D01*
X204258349Y-81170234D01*
X204243851Y-81143110D01*
X204210130Y-80973580D01*
X204130941Y-80782402D01*
X204109378Y-80750131D01*
X204039530Y-80645595D01*
X204015977Y-80610345D01*
X203869655Y-80464023D01*
X203697599Y-80349059D01*
X203644282Y-80326974D01*
X203506420Y-80269870D01*
X203506415Y-80269869D01*
X203506417Y-80269869D01*
X203303466Y-80229500D01*
X203303465Y-80229500D01*
X203096535Y-80229500D01*
X203096534Y-80229500D01*
X202893583Y-80269869D01*
X202893581Y-80269869D01*
X202893580Y-80269870D01*
X202857567Y-80284787D01*
X202702400Y-80349059D01*
X202530344Y-80464023D01*
X202384023Y-80610344D01*
X202269059Y-80782400D01*
X202189869Y-80973583D01*
X202149500Y-81176534D01*
X202149500Y-81383465D01*
X202188182Y-81577937D01*
X202189870Y-81586420D01*
X202232718Y-81689863D01*
X202269059Y-81777599D01*
X202384023Y-81949655D01*
X202530344Y-82095976D01*
X202702400Y-82210940D01*
X202702401Y-82210940D01*
X202702402Y-82210941D01*
X202893580Y-82290130D01*
X203028883Y-82317043D01*
X203096534Y-82330500D01*
X203096535Y-82330500D01*
X203303465Y-82330500D01*
X203506420Y-82290130D01*
X203697598Y-82210941D01*
X203869655Y-82095977D01*
X204015977Y-81949655D01*
X204030584Y-81927794D01*
X204064296Y-81905268D01*
X204074631Y-81904250D01*
X205241800Y-81904250D01*
X205279259Y-81919766D01*
X205294775Y-81957225D01*
X205279259Y-81994684D01*
X204104727Y-83169215D01*
X204067268Y-83184731D01*
X204029809Y-83169215D01*
X204023227Y-83161196D01*
X204015977Y-83150345D01*
X203869655Y-83004023D01*
X203697599Y-82889059D01*
X203644282Y-82866974D01*
X203506420Y-82809870D01*
X203506415Y-82809869D01*
X203506417Y-82809869D01*
X203303466Y-82769500D01*
X203303465Y-82769500D01*
X203096535Y-82769500D01*
X203096534Y-82769500D01*
X202893583Y-82809869D01*
X202893581Y-82809869D01*
X202893580Y-82809870D01*
X202850271Y-82827809D01*
X202702400Y-82889059D01*
X202530344Y-83004023D01*
X202384023Y-83150344D01*
X202269059Y-83322400D01*
X202230244Y-83416108D01*
X202193179Y-83505593D01*
X202189869Y-83513583D01*
X202149500Y-83716534D01*
X202149500Y-83923465D01*
X202184436Y-84099104D01*
X202189870Y-84126420D01*
X202238434Y-84243663D01*
X202269059Y-84317599D01*
X202384023Y-84489655D01*
X202530344Y-84635976D01*
X202702400Y-84750940D01*
X202702401Y-84750940D01*
X202702402Y-84750941D01*
X202893580Y-84830130D01*
X203028883Y-84857043D01*
X203096534Y-84870500D01*
X203096535Y-84870500D01*
X203303465Y-84870500D01*
X203506420Y-84830130D01*
X203697598Y-84750941D01*
X203869655Y-84635977D01*
X204015977Y-84489655D01*
X204130941Y-84317598D01*
X204210130Y-84126420D01*
X204218539Y-84084141D01*
X204233033Y-84057023D01*
X204249472Y-84040585D01*
X204249473Y-84040582D01*
X205720290Y-82569766D01*
X205757749Y-82554250D01*
X206237544Y-82554250D01*
X206275003Y-82569766D01*
X206290519Y-82607225D01*
X206285555Y-82629614D01*
X206252028Y-82701510D01*
X206246264Y-82745295D01*
X206231201Y-82775839D01*
X203638046Y-85368994D01*
X203600587Y-85384510D01*
X203580315Y-85380478D01*
X203545726Y-85366151D01*
X203506420Y-85349870D01*
X203506418Y-85349869D01*
X203506417Y-85349869D01*
X203303466Y-85309500D01*
X203303465Y-85309500D01*
X203096535Y-85309500D01*
X203096534Y-85309500D01*
X202893583Y-85349869D01*
X202893581Y-85349869D01*
X202893580Y-85349870D01*
X202850271Y-85367809D01*
X202702400Y-85429059D01*
X202530344Y-85544023D01*
X202384023Y-85690344D01*
X202269059Y-85862400D01*
X202189869Y-86053583D01*
X202149500Y-86256534D01*
X202149500Y-86463465D01*
X202171687Y-86575010D01*
X202189870Y-86666420D01*
X202195277Y-86679473D01*
X202269059Y-86857599D01*
X202376078Y-87017764D01*
X202384023Y-87029655D01*
X202530345Y-87175977D01*
X202574157Y-87205251D01*
X202702400Y-87290940D01*
X202702401Y-87290940D01*
X202702402Y-87290941D01*
X202893580Y-87370130D01*
X203028883Y-87397043D01*
X203096534Y-87410500D01*
X203096535Y-87410500D01*
X203303465Y-87410500D01*
X203506420Y-87370130D01*
X203697598Y-87290941D01*
X203869655Y-87175977D01*
X204015977Y-87029655D01*
X204130941Y-86857598D01*
X204210130Y-86666420D01*
X204250500Y-86463465D01*
X204250500Y-86256535D01*
X204210130Y-86053580D01*
X204179521Y-85979684D01*
X204179520Y-85939138D01*
X204191001Y-85921955D01*
X206031457Y-84081500D01*
X206294394Y-84081500D01*
X206296435Y-84099104D01*
X206340592Y-84199107D01*
X206340594Y-84199110D01*
X206417890Y-84276406D01*
X206417892Y-84276407D01*
X206517894Y-84320564D01*
X206542343Y-84323399D01*
X206946500Y-84323399D01*
X206969663Y-84323399D01*
X206994103Y-84320564D01*
X206994107Y-84320563D01*
X207094107Y-84276407D01*
X207094110Y-84276406D01*
X207171406Y-84199110D01*
X207171407Y-84199107D01*
X207215564Y-84099104D01*
X207217606Y-84081500D01*
X206946500Y-84081500D01*
X206946500Y-84323399D01*
X206542343Y-84323399D01*
X206565500Y-84323398D01*
X206565500Y-84081500D01*
X206294394Y-84081500D01*
X206031457Y-84081500D01*
X206396941Y-83716016D01*
X206434400Y-83700500D01*
X207217606Y-83700500D01*
X207217606Y-83700499D01*
X207215564Y-83682895D01*
X207171407Y-83582892D01*
X207171406Y-83582890D01*
X207094110Y-83505594D01*
X207094108Y-83505593D01*
X207049665Y-83485968D01*
X207021666Y-83456643D01*
X207022603Y-83416108D01*
X207048674Y-83389496D01*
X207124316Y-83354224D01*
X207209224Y-83269316D01*
X207209226Y-83269312D01*
X207210499Y-83266584D01*
X207240393Y-83239194D01*
X207258509Y-83236000D01*
X208299731Y-83236000D01*
X208337190Y-83251516D01*
X208352706Y-83288975D01*
X208351688Y-83299311D01*
X208350655Y-83304499D01*
X208350656Y-83304500D01*
X210104344Y-83304500D01*
X210104344Y-83304499D01*
X210103312Y-83299311D01*
X210111221Y-83259545D01*
X210144933Y-83237018D01*
X210155269Y-83236000D01*
X210577377Y-83236000D01*
X210614836Y-83251516D01*
X210623253Y-83262485D01*
X210629009Y-83272454D01*
X210732546Y-83375991D01*
X210859353Y-83449203D01*
X210962890Y-83476945D01*
X211000787Y-83487100D01*
X211000788Y-83487100D01*
X211147213Y-83487100D01*
X211177101Y-83479091D01*
X211288647Y-83449203D01*
X211415454Y-83375991D01*
X211518991Y-83272454D01*
X211592203Y-83145647D01*
X211627212Y-83014991D01*
X211630100Y-83004213D01*
X211630100Y-82857786D01*
X211608142Y-82775839D01*
X211592203Y-82716353D01*
X211518991Y-82589546D01*
X211415454Y-82486009D01*
X211415453Y-82486008D01*
X211288647Y-82412797D01*
X211147213Y-82374900D01*
X211147212Y-82374900D01*
X211000788Y-82374900D01*
X211000787Y-82374900D01*
X210859352Y-82412797D01*
X210800279Y-82446903D01*
X210773792Y-82454000D01*
X210204584Y-82454000D01*
X210167125Y-82438484D01*
X210151609Y-82401025D01*
X210156123Y-82379627D01*
X210162585Y-82364991D01*
X210162585Y-82364989D01*
X210165500Y-82339865D01*
X210165499Y-82050136D01*
X210165499Y-82050135D01*
X210165499Y-82050131D01*
X210162585Y-82025010D01*
X210162585Y-82025009D01*
X210117206Y-81922235D01*
X210102430Y-81907459D01*
X210086914Y-81870000D01*
X210102430Y-81832541D01*
X210117204Y-81817767D01*
X210117206Y-81817765D01*
X210162585Y-81714991D01*
X210165500Y-81689865D01*
X210165499Y-81400136D01*
X210165499Y-81400135D01*
X210165499Y-81400131D01*
X210162585Y-81375010D01*
X210162585Y-81375009D01*
X210117206Y-81272235D01*
X210102430Y-81257459D01*
X210086914Y-81220000D01*
X210102430Y-81182541D01*
X210117204Y-81167767D01*
X210117206Y-81167765D01*
X210162585Y-81064991D01*
X210165500Y-81039865D01*
X210165499Y-80750136D01*
X210165499Y-80750135D01*
X210165499Y-80750131D01*
X210162585Y-80725010D01*
X210162585Y-80725009D01*
X210117206Y-80622235D01*
X210037765Y-80542794D01*
X210006284Y-80528894D01*
X209934991Y-80497414D01*
X209934992Y-80497414D01*
X209914188Y-80495001D01*
X209909865Y-80494500D01*
X209909863Y-80494500D01*
X208545132Y-80494500D01*
X208539592Y-80495143D01*
X208500596Y-80484042D01*
X208496035Y-80479979D01*
X206538494Y-78522438D01*
X206538492Y-78522435D01*
X206468583Y-78452526D01*
X206416650Y-78422543D01*
X206386666Y-78405232D01*
X206295297Y-78380749D01*
X206295296Y-78380749D01*
X206200704Y-78380749D01*
X206197464Y-78380749D01*
X206197448Y-78380750D01*
X204223643Y-78380750D01*
X204186184Y-78365234D01*
X204174702Y-78348050D01*
X204130941Y-78242402D01*
X204015977Y-78070345D01*
X203869655Y-77924023D01*
X203792919Y-77872750D01*
X203697599Y-77809059D01*
X203644282Y-77786974D01*
X203506420Y-77729870D01*
X203506415Y-77729869D01*
X203506417Y-77729869D01*
X203303466Y-77689500D01*
X203303465Y-77689500D01*
X203096535Y-77689500D01*
X203096534Y-77689500D01*
X202893583Y-77729869D01*
X202893581Y-77729869D01*
X202893580Y-77729870D01*
X202850271Y-77747809D01*
X202702400Y-77809059D01*
X202530344Y-77924023D01*
X202384023Y-78070344D01*
X202269059Y-78242400D01*
X202189869Y-78433583D01*
X202155421Y-78606766D01*
X202149500Y-78636535D01*
X201625700Y-78636535D01*
X201625700Y-77408658D01*
X208927200Y-77408658D01*
X208927200Y-77531341D01*
X208951133Y-77651661D01*
X208951134Y-77651663D01*
X208998081Y-77765005D01*
X208998082Y-77765006D01*
X209066240Y-77867012D01*
X209152988Y-77953760D01*
X209254994Y-78021918D01*
X209368336Y-78068866D01*
X209488658Y-78092799D01*
X209488659Y-78092800D01*
X209488660Y-78092800D01*
X209611341Y-78092800D01*
X209611341Y-78092799D01*
X209731664Y-78068866D01*
X209845006Y-78021918D01*
X209947012Y-77953760D01*
X210033760Y-77867012D01*
X210101918Y-77765006D01*
X210148866Y-77651664D01*
X210172800Y-77531340D01*
X210172800Y-77408660D01*
X210148866Y-77288336D01*
X210101918Y-77174994D01*
X210033760Y-77072988D01*
X209947012Y-76986240D01*
X209845005Y-76918081D01*
X209778611Y-76890580D01*
X209731664Y-76871134D01*
X209731662Y-76871133D01*
X209731661Y-76871133D01*
X209611341Y-76847200D01*
X209611340Y-76847200D01*
X209488660Y-76847200D01*
X209488658Y-76847200D01*
X209368338Y-76871133D01*
X209368336Y-76871134D01*
X209254994Y-76918081D01*
X209152987Y-76986240D01*
X209066240Y-77072987D01*
X208998081Y-77174994D01*
X208951134Y-77288336D01*
X208951133Y-77288338D01*
X208927200Y-77408658D01*
X201625700Y-77408658D01*
X201625700Y-76101270D01*
X202197600Y-76101270D01*
X202197600Y-76298729D01*
X202236121Y-76492386D01*
X202236122Y-76492388D01*
X202311684Y-76674813D01*
X202369400Y-76761191D01*
X202735364Y-76395226D01*
X202799901Y-76507007D01*
X202892993Y-76600099D01*
X203004771Y-76664634D01*
X202638807Y-77030598D01*
X202638807Y-77030599D01*
X202725186Y-77088315D01*
X202907611Y-77163877D01*
X202907613Y-77163878D01*
X203101270Y-77202400D01*
X203298729Y-77202400D01*
X203492386Y-77163878D01*
X203492388Y-77163877D01*
X203674813Y-77088315D01*
X203761191Y-77030599D01*
X203761191Y-77030598D01*
X203395227Y-76664634D01*
X203507007Y-76600099D01*
X203600099Y-76507007D01*
X203664634Y-76395227D01*
X204030598Y-76761191D01*
X204030599Y-76761191D01*
X204088315Y-76674813D01*
X204163877Y-76492388D01*
X204163878Y-76492386D01*
X204202400Y-76298729D01*
X204202400Y-76101270D01*
X204163878Y-75907613D01*
X204163877Y-75907611D01*
X204088315Y-75725186D01*
X204030599Y-75638807D01*
X204030598Y-75638807D01*
X203664634Y-76004771D01*
X203600099Y-75892993D01*
X203507007Y-75799901D01*
X203395226Y-75735364D01*
X203753933Y-75376658D01*
X208927200Y-75376658D01*
X208927200Y-75499341D01*
X208940743Y-75567429D01*
X208951134Y-75619664D01*
X208970580Y-75666611D01*
X208998081Y-75733005D01*
X209003271Y-75740772D01*
X209066240Y-75835012D01*
X209152988Y-75921760D01*
X209254994Y-75989918D01*
X209368336Y-76036866D01*
X209488658Y-76060799D01*
X209488659Y-76060800D01*
X209488660Y-76060800D01*
X209611341Y-76060800D01*
X209611341Y-76060799D01*
X209731664Y-76036866D01*
X209845006Y-75989918D01*
X209947012Y-75921760D01*
X210033760Y-75835012D01*
X210092499Y-75747103D01*
X210273900Y-75747103D01*
X210273900Y-75890896D01*
X210311117Y-76029790D01*
X210311117Y-76029791D01*
X210321616Y-76047974D01*
X210321617Y-76047974D01*
X210550592Y-75819000D01*
X210550592Y-75818999D01*
X210321616Y-75590024D01*
X210311116Y-75608212D01*
X210273900Y-75747103D01*
X210092499Y-75747103D01*
X210101918Y-75733006D01*
X210148866Y-75619664D01*
X210172800Y-75499340D01*
X210172800Y-75376660D01*
X210148866Y-75256336D01*
X210101918Y-75142994D01*
X210033760Y-75040988D01*
X209947012Y-74954240D01*
X209845006Y-74886082D01*
X209845007Y-74886082D01*
X209845005Y-74886081D01*
X209778611Y-74858580D01*
X209731664Y-74839134D01*
X209731662Y-74839133D01*
X209731661Y-74839133D01*
X209611341Y-74815200D01*
X209611340Y-74815200D01*
X209488660Y-74815200D01*
X209488658Y-74815200D01*
X209368338Y-74839133D01*
X209368336Y-74839134D01*
X209254994Y-74886081D01*
X209152987Y-74954240D01*
X209066240Y-75040987D01*
X208998081Y-75142994D01*
X208951134Y-75256336D01*
X208951133Y-75256338D01*
X208927200Y-75376658D01*
X203753933Y-75376658D01*
X203761191Y-75369400D01*
X203761191Y-75369399D01*
X203674813Y-75311684D01*
X203492388Y-75236122D01*
X203492386Y-75236121D01*
X203298730Y-75197600D01*
X203101270Y-75197600D01*
X202907613Y-75236121D01*
X202907611Y-75236122D01*
X202725190Y-75311683D01*
X202638807Y-75369400D01*
X203004772Y-75735365D01*
X202892993Y-75799901D01*
X202799901Y-75892993D01*
X202735365Y-76004772D01*
X202369400Y-75638807D01*
X202311683Y-75725190D01*
X202236122Y-75907611D01*
X202236121Y-75907613D01*
X202197600Y-76101270D01*
X201625700Y-76101270D01*
X201625700Y-74678675D01*
X201641216Y-74641216D01*
X201678675Y-74625700D01*
X211291082Y-74625700D01*
X211328541Y-74641216D01*
G37*
%TD.AperFunction*%
%TA.AperFunction,Conductor*%
G36*
X212770878Y-77193153D02*
G01*
X212776170Y-77205929D01*
X212806294Y-77318353D01*
X212858183Y-77408228D01*
X212884522Y-77453847D01*
X212995153Y-77564478D01*
X213130647Y-77642706D01*
X213241277Y-77672349D01*
X213281771Y-77683200D01*
X213424201Y-77683200D01*
X213461660Y-77698716D01*
X214213673Y-78450729D01*
X214213678Y-78450735D01*
X214282415Y-78519472D01*
X214282418Y-78519474D01*
X214310473Y-78535671D01*
X214310474Y-78535672D01*
X214310475Y-78535672D01*
X214364334Y-78566768D01*
X214431221Y-78584689D01*
X214455703Y-78591250D01*
X214455704Y-78591250D01*
X214550296Y-78591250D01*
X217507251Y-78591250D01*
X217544710Y-78606766D01*
X218573234Y-79635290D01*
X218588750Y-79672749D01*
X218588750Y-81617251D01*
X218573234Y-81654710D01*
X218560710Y-81667234D01*
X218523251Y-81682750D01*
X218388454Y-81682750D01*
X218350995Y-81667234D01*
X218347304Y-81662835D01*
X218262406Y-81577937D01*
X218262404Y-81577935D01*
X218262401Y-81577933D01*
X218261633Y-81577396D01*
X218261225Y-81576756D01*
X218259127Y-81574658D01*
X218259592Y-81574192D01*
X218239847Y-81543201D01*
X218248621Y-81503616D01*
X218261633Y-81490604D01*
X218262397Y-81490068D01*
X218262404Y-81490065D01*
X218346065Y-81406404D01*
X218396068Y-81299173D01*
X218402500Y-81250316D01*
X218402500Y-80801684D01*
X218396068Y-80752827D01*
X218346065Y-80645596D01*
X218270282Y-80569813D01*
X218261863Y-80558841D01*
X218252598Y-80542794D01*
X218219472Y-80485416D01*
X218155615Y-80421559D01*
X218140099Y-80384100D01*
X218140099Y-80284787D01*
X218115963Y-80194712D01*
X218102202Y-80143354D01*
X218028990Y-80016547D01*
X217925453Y-79913010D01*
X217925452Y-79913009D01*
X217798646Y-79839798D01*
X217657212Y-79801901D01*
X217657211Y-79801901D01*
X217557899Y-79801901D01*
X217520440Y-79786385D01*
X217272493Y-79538438D01*
X217272491Y-79538435D01*
X217202582Y-79468526D01*
X217150649Y-79438543D01*
X217120666Y-79421232D01*
X217029296Y-79396749D01*
X216934703Y-79396749D01*
X216931463Y-79396749D01*
X216931447Y-79396750D01*
X214546749Y-79396750D01*
X214509290Y-79381234D01*
X212600232Y-77472176D01*
X212584716Y-77434717D01*
X212591812Y-77408231D01*
X212643706Y-77318353D01*
X212673830Y-77205928D01*
X212698513Y-77173762D01*
X212738711Y-77168470D01*
X212770878Y-77193153D01*
G37*
%TD.AperFunction*%
%TD*%
M02*
