M48
; DRILL file {KiCad 9.0.7} date 2026-07-14T15:21:30-0400
; FORMAT={-:-/ absolute / metric / decimal}
; #@! TF.CreationDate,2026-07-14T15:21:30-04:00
; #@! TF.GenerationSoftware,Kicad,Pcbnew,9.0.7
; #@! TF.FileFunction,Plated,1,2,PTH
FMAT,2
METRIC
; #@! TA.AperFunction,Plated,PTH,ViaDrill
T1C0.305
; #@! TA.AperFunction,Plated,PTH,ComponentDrill
T2C1.000
%
G90
G05
T1
X206.121Y-84.709
X207.518Y-101.981
X207.9Y-84.081
X208.153Y-91.44
X208.28Y-75.438
X208.534Y-89.916
X209.042Y-92.329
X209.296Y-100.203
X209.423Y-87.884
X209.55Y-78.74
X210.439Y-92.075
X211.074Y-81.661
X211.074Y-82.931
X211.561Y-75.226
X212.09Y-81.026
X212.09Y-83.566
X212.09Y-86.741
X212.217Y-88.265
X212.217Y-90.424
X214.249Y-88.011
X214.376Y-91.186
X214.376Y-93.091
X214.503Y-89.408
X214.503Y-98.679
X214.503Y-99.695
X215.011Y-101.981
X215.218Y-91.995
X215.773Y-80.518
X215.9Y-76.454
X216.408Y-79.042
X217.584Y-80.358
X218.44Y-77.47
T2
X203.2Y-76.2
X203.2Y-78.74
X203.2Y-81.28
X203.2Y-83.82
X203.2Y-86.36
X203.2Y-88.9
X203.2Y-91.44
X203.2Y-93.98
X203.2Y-96.52
X203.2Y-99.06
X203.2Y-101.6
X220.98Y-76.2
X220.98Y-78.74
X220.98Y-81.28
X220.98Y-83.82
X220.98Y-86.36
X220.98Y-88.9
X220.98Y-91.44
X220.98Y-93.98
X220.98Y-96.52
X220.98Y-99.06
X220.98Y-101.6
M30
